<?xml version="1.0" encoding="UTF-8" standalone="no"?>
<!DOCTYPE svg PUBLIC "-//W3C//DTD SVG 1.1//EN" "http://www.w3.org/Graphics/SVG/1.1/DTD/svg11.dtd">
<svg width="100%" height="100%" viewBox="0 0 700 700" version="1.1" xmlns="http://www.w3.org/2000/svg" xmlns:xlink="http://www.w3.org/1999/xlink" xml:space="preserve" xmlns:serif="http://www.serif.com/" style="fill-rule:evenodd;clip-rule:evenodd;stroke-linejoin:round;stroke-miterlimit:2;">
    <g id="Layer_1">
        <path d="M635,700L65,700C29.1,700 0,670.9 0,635L0,65C0,29.1 29.1,0 65,0L635,0C670.9,0 700,29.1 700,65L700,635C700,670.9 670.9,700 635,700Z" style="fill:rgb(2,2,2);fill-rule:nonzero;"/>
    </g>
    <g transform="matrix(1,0,0,1,53.7679,283.741)">
        <g id="letters">
            <g>
                <path d="M9.144,-35.053C9.144,-39.794 10.351,-44.705 12.764,-49.785C15.177,-54.865 19.368,-59.458 25.337,-63.564C31.306,-67.671 39.371,-71.1 49.531,-73.852C59.691,-76.603 72.476,-78.149 87.885,-78.487L87.885,-84.329C87.885,-92.203 86.255,-97.897 82.996,-101.411C79.736,-104.925 75.143,-106.682 69.216,-106.682C64.475,-106.682 60.58,-106.152 57.532,-105.094C54.484,-104.036 51.753,-102.85 49.34,-101.538C46.927,-100.226 44.599,-99.062 42.355,-98.046C40.111,-97.029 37.423,-96.521 34.291,-96.521C31.496,-96.521 29.126,-97.199 27.178,-98.554C25.231,-99.908 23.707,-101.559 22.606,-103.507L15.367,-116.08C23.495,-123.277 32.534,-128.632 42.482,-132.146C52.431,-135.659 63.078,-137.416 74.423,-137.416C82.551,-137.416 89.896,-136.104 96.458,-133.479C103.02,-130.854 108.566,-127.171 113.095,-122.43C117.625,-117.688 121.096,-112.079 123.509,-105.602C125.922,-99.125 127.129,-92.034 127.129,-84.329L127.129,0L108.714,0C104.904,0 102.025,-0.529 100.078,-1.588C98.13,-2.646 96.521,-4.784 95.251,-8.001L92.33,-15.494C88.944,-12.616 85.684,-10.097 82.551,-7.938C79.419,-5.779 76.201,-3.937 72.899,-2.413C69.597,-0.889 66.041,0.233 62.231,0.953C58.421,1.672 54.23,2.032 49.658,2.032C43.477,2.032 37.889,1.228 32.894,-0.381C27.898,-1.99 23.644,-4.339 20.13,-7.43C16.616,-10.52 13.907,-14.394 12.002,-19.05C10.097,-23.707 9.144,-29.041 9.144,-35.053ZM47.626,-37.085C47.626,-32.513 48.896,-29.295 51.436,-27.432C53.976,-25.57 57.659,-24.638 62.485,-24.638C67.65,-24.638 72.179,-25.549 76.074,-27.369C79.969,-29.189 83.906,-32.131 87.885,-36.196L87.885,-54.865C79.842,-54.526 73.217,-53.828 68.01,-52.769C62.802,-51.711 58.675,-50.42 55.627,-48.896C52.579,-47.372 50.483,-45.594 49.34,-43.562C48.197,-41.53 47.626,-39.371 47.626,-37.085Z" style="fill:white;fill-rule:nonzero;"/>
                <path d="M156.212,-49.023L156.212,-77.852L274.578,-77.852L274.578,-49.023L156.212,-49.023ZM156.212,-96.648L156.212,-125.605L274.578,-125.605L274.578,-96.648L156.212,-96.648Z" style="fill:white;fill-rule:nonzero;"/>
                <path d="M307.98,-140.083L367.036,-189.614L400.31,-189.614L400.31,-29.083L431.553,-29.083L431.553,0L323.601,0L323.601,-29.083L360.051,-29.083L360.051,-124.716C360.051,-129.373 360.178,-134.283 360.432,-139.448L338.968,-121.541C337.614,-120.44 336.238,-119.657 334.841,-119.191C333.444,-118.726 332.068,-118.493 330.713,-118.493C328.427,-118.493 326.416,-118.98 324.68,-119.953C322.945,-120.927 321.654,-122.007 320.807,-123.192L307.98,-140.083Z" style="fill:white;fill-rule:nonzero;"/>
                <path d="M9.144,285.047C9.144,280.306 10.351,275.395 12.764,270.315C15.177,265.235 19.368,260.642 25.337,256.536C31.306,252.429 39.371,249 49.531,246.248C59.691,243.497 72.476,241.951 87.885,241.613L87.885,235.771C87.885,227.897 86.255,222.203 82.996,218.689C79.736,215.175 75.143,213.418 69.216,213.418C64.475,213.418 60.58,213.948 57.532,215.006C54.484,216.064 51.753,217.25 49.34,218.562C46.927,219.874 44.599,221.038 42.355,222.054C40.111,223.071 37.423,223.579 34.291,223.579C31.496,223.579 29.126,222.901 27.178,221.546C25.231,220.192 23.707,218.541 22.606,216.593L15.367,204.02C23.495,196.823 32.534,191.468 42.482,187.954C52.431,184.441 63.078,182.684 74.423,182.684C82.551,182.684 89.896,183.996 96.458,186.621C103.02,189.246 108.566,192.929 113.095,197.67C117.625,202.412 121.096,208.021 123.509,214.498C125.922,220.975 127.129,228.066 127.129,235.771L127.129,320.1L108.714,320.1C104.904,320.1 102.025,319.571 100.078,318.512C98.13,317.454 96.521,315.316 95.251,312.099L92.33,304.606C88.944,307.484 85.684,310.003 82.551,312.162C79.419,314.321 76.201,316.163 72.899,317.687C69.597,319.211 66.041,320.333 62.231,321.053C58.421,321.772 54.23,322.132 49.658,322.132C43.477,322.132 37.889,321.328 32.894,319.719C27.898,318.11 23.644,315.761 20.13,312.67C16.616,309.58 13.907,305.706 12.002,301.05C10.097,296.393 9.144,291.059 9.144,285.047ZM47.626,283.015C47.626,287.588 48.896,290.805 51.436,292.668C53.976,294.53 57.659,295.462 62.485,295.462C67.65,295.462 72.179,294.551 76.074,292.731C79.969,290.911 83.906,287.969 87.885,283.904L87.885,265.235C79.842,265.574 73.217,266.272 68.01,267.331C62.802,268.389 58.675,269.68 55.627,271.204C52.579,272.728 50.483,274.506 49.34,276.538C48.197,278.57 47.626,280.729 47.626,283.015Z" style="fill:white;fill-rule:nonzero;"/>
                <path d="M155.704,320.1L155.704,125.406L195.964,125.406L195.964,199.575C200.959,194.664 206.653,190.706 213.046,187.7C219.438,184.695 226.952,183.192 235.589,183.192C242.616,183.192 249.114,184.695 255.083,187.7C261.053,190.706 266.196,195.151 270.514,201.036C274.832,206.92 278.24,214.096 280.738,222.563C283.236,231.029 284.484,240.681 284.484,251.519C284.484,261.679 283.066,271.056 280.23,279.65C277.393,288.244 273.435,295.694 268.355,302.002C263.275,308.31 257.2,313.242 250.13,316.798C243.061,320.354 235.25,322.132 226.698,322.132C222.719,322.132 219.142,321.751 215.967,320.989C212.792,320.227 209.892,319.126 207.267,317.687C204.642,316.248 202.208,314.533 199.965,312.543C197.721,310.554 195.583,308.373 193.551,306.003L192.154,312.861C191.561,315.655 190.461,317.56 188.852,318.576C187.243,319.592 185.127,320.1 182.502,320.1L155.704,320.1ZM195.964,283.396C199.012,286.783 202.314,289.154 205.87,290.509C209.426,291.863 213.152,292.541 217.046,292.541C220.772,292.541 224.201,291.8 227.333,290.318C230.466,288.836 233.176,286.466 235.462,283.206C237.748,279.946 239.547,275.713 240.859,270.506C242.172,265.299 242.828,258.97 242.828,251.519C242.828,244.407 242.299,238.438 241.24,233.612C240.182,228.786 238.721,224.87 236.859,221.864C234.996,218.858 232.773,216.699 230.191,215.387C227.609,214.075 224.709,213.418 221.491,213.418C218.528,213.418 215.861,213.715 213.49,214.307C211.12,214.9 208.918,215.704 206.886,216.72C204.854,217.736 202.97,219.049 201.235,220.657C199.499,222.266 197.742,224.129 195.964,226.246L195.964,283.396Z" style="fill:white;fill-rule:nonzero;"/>
                <path d="M306.964,271.077L306.964,242.248L425.33,242.248L425.33,271.077L306.964,271.077ZM306.964,223.452L306.964,194.495L425.33,194.495L425.33,223.452L306.964,223.452Z" style="fill:white;fill-rule:nonzero;"/>
                <path d="M450.222,320.1L450.222,307.146C450.222,304.606 450.73,301.896 451.746,299.018C452.762,296.139 454.582,293.557 457.207,291.271L511.818,236.279C516.475,231.622 520.539,227.156 524.01,222.88C527.481,218.604 530.339,214.413 532.583,210.307C534.826,206.2 536.52,202.073 537.663,197.924C538.806,193.775 539.377,189.415 539.377,184.843C539.377,177.307 537.578,171.529 533.98,167.507C530.381,163.485 524.899,161.475 517.533,161.475C514.485,161.475 511.712,161.898 509.214,162.745C506.717,163.591 504.473,164.755 502.483,166.237C500.494,167.719 498.779,169.455 497.34,171.444C495.9,173.434 494.757,175.614 493.911,177.985C492.556,181.88 490.799,184.695 488.64,186.43C486.481,188.166 483.581,189.034 479.94,189.034C479.094,189.034 478.162,188.992 477.146,188.907C476.13,188.822 475.114,188.695 474.098,188.526L452.762,184.716C454.117,175.233 456.784,166.999 460.763,160.014C464.742,153.029 469.653,147.187 475.495,142.488C481.337,137.789 488.026,134.296 495.562,132.01C503.097,129.724 511.183,128.581 519.819,128.581C529.217,128.581 537.663,129.936 545.156,132.645C552.649,135.354 559.041,139.143 564.333,144.012C569.625,148.88 573.689,154.68 576.525,161.411C579.362,168.142 580.78,175.529 580.78,183.573C580.78,190.516 579.806,196.929 577.859,202.814C575.912,208.698 573.244,214.307 569.858,219.641C566.471,224.976 562.534,230.14 558.047,235.136C553.559,240.131 548.818,245.169 543.822,250.249L506.738,288.223C511.479,286.868 516.178,285.767 520.835,284.92C525.492,284.074 529.852,283.65 533.916,283.65L569.35,283.65C573.668,283.65 577.076,284.857 579.573,287.27C582.071,289.683 583.32,292.837 583.32,296.732L583.32,320.1L450.222,320.1Z" style="fill:white;fill-rule:nonzero;"/>
            </g>
        </g>
    </g>
</svg>
