<?xml version="1.0" encoding="UTF-8"?><svg id="Layer_1" xmlns="http://www.w3.org/2000/svg" viewBox="0 0 500 500"><defs><style>.cls-1{fill:#030303;}.cls-2{fill:#fff;}</style></defs><path class="cls-1" d="M453.57,500H46.43c-25.64,0-46.43-20.79-46.43-46.43V46.43C0,20.79,20.79,0,46.43,0H453.57c25.64,0,46.43,20.79,46.43,46.43V453.57c0,25.64-20.79,46.43-46.43,46.43Z"/><path class="cls-2" d="M358.02,225.1c13.61,0,24.72,11.11,24.72,24.72s-11.11,24.72-24.72,24.72H207.01l54.64,48.37c10.21,8.96,11.11,24.54,2.15,34.75-8.96,10.21-24.54,11.11-34.75,2.15l-101.75-89.93c-6.09-4.48-10.03-11.64-10.03-19.88s3.94-15.41,10.03-19.88l101.75-89.93c10.21-8.96,25.62-8.06,34.75,2.15,8.96,10.21,8.06,25.62-2.15,34.75l-54.64,48.37,151.01-.36h0Z"/></svg>