<?xml version="1.0" encoding="UTF-8"?><svg id="Layer_1" xmlns="http://www.w3.org/2000/svg" viewBox="0 0 700 700"><defs><style>.cls-1{fill:#010101;}.cls-2{fill:#fff;}</style></defs><path class="cls-1" d="M620.73,24.47H79.28c-30.23,0-54.74,24.51-54.74,54.74V620.66c0,30.23,24.51,54.74,54.74,54.74H620.73c30.23,0,54.74-24.51,54.74-54.74V79.21c0-30.23-24.51-54.74-54.74-54.74Zm-69.68,392.32h-133.7v133.71h-133.71v-133.71H149.94v-133.71h133.7V149.37h133.71v133.71h133.71v133.71Z"/><g><path class="cls-1" d="M676.84,23.17C662.05,8.37,641.99,.04,621.06,0H78.94C58.02,.04,37.96,8.37,23.17,23.17,8.37,37.96,.04,58.02,0,78.94V621.06c.04,20.93,8.37,40.99,23.17,55.78,14.79,14.79,34.85,23.12,55.77,23.16H621.06c20.93-.04,40.99-8.36,55.78-23.16,14.79-14.79,23.12-34.85,23.16-55.78V78.94c-.04-20.92-8.36-40.98-23.16-55.77Zm-10.32,597.9c0,12.06-4.79,23.62-13.31,32.14-8.53,8.53-20.09,13.31-32.15,13.31H78.94c-12.05,0-23.62-4.78-32.14-13.31-8.53-8.52-13.31-20.08-13.31-32.14V78.8c0-12.06,4.78-23.62,13.31-32.14,8.52-8.53,20.09-13.31,32.14-13.31l542.12,.15c12.06,0,23.62,4.78,32.15,13.31,8.52,8.52,13.31,20.08,13.31,32.14V621.07Z"/><polygon class="cls-2" points="551.06 283.08 551.05 416.79 417.35 416.79 417.35 550.5 283.64 550.5 283.64 416.79 149.94 416.79 149.94 283.08 283.64 283.08 283.64 149.37 417.35 149.38 417.35 283.08 551.06 283.08"/></g></svg>