<?xml version="1.0" encoding="utf-8"?>
<!-- Generator: Adobe Illustrator 26.2.0, SVG Export Plug-In . SVG Version: 6.00 Build 0)  -->
<svg version="1.1" id="Layer_1" xmlns="http://www.w3.org/2000/svg" xmlns:xlink="http://www.w3.org/1999/xlink" x="0px" y="0px"
	 viewBox="70 0 560 560" style="enable-background:new 0 0 700 700;" xml:space="preserve">
<g>
	<path d="M566.8,560H133.1c-16.7,0-32.8-6.7-44.6-18.5S70,513.6,70,496.8V63.1c0-16.7,6.7-32.8,18.5-44.6S116.4,0,133.1,0h433.7
		c16.7,0,32.8,6.7,44.6,18.5S630,46.4,630,63.1v433.7c0,16.7-6.7,32.8-18.5,44.6S583.6,560,566.8,560z M133.1,26.7
		c-9.6,0-18.9,3.8-25.7,10.6c-6.8,6.8-10.6,16.1-10.6,25.7v433.8c0,9.6,3.8,18.9,10.6,25.7s16.1,10.6,25.7,10.6h433.7
		c9.6,0,18.9-3.8,25.7-10.6s10.6-16.1,10.6-25.7V63.2c0-9.6-3.8-18.9-10.6-25.7s-16.1-10.6-25.7-10.6L133.1,26.7z"/>
	<path d="M566.8,13.3H133.1C120,13.4,107.3,18.6,98,28c-9.3,9.3-14.6,22-14.6,35.2v433.7c0,14.5,6.2,28.2,17.2,37.7L602,28
		C592.7,18.6,580.1,13.3,566.8,13.3L566.8,13.3z M294.9,117.1L258.9,153l35.9,35.9l-35.9,35.9L223,188.9l-35.9,35.9l-35.9-35.9
		l35.9-35.9l-35.9-35.9l35.9-35.9l35.9,35.9l35.9-35.9L294.9,117.1z"/>
	<path d="M379.5,381.6h152.4v50.8H379.5V381.6z"/>
</g>
<circle cx="455.6" cy="474.7" r="28.8"/>
<circle cx="455.6" cy="332.2" r="28.8"/>
</svg>
