<?xml version="1.0" encoding="UTF-8"?><svg id="Layer_1" xmlns="http://www.w3.org/2000/svg" viewBox="0 0 700 700"><path d="M641.51,0H58.36C26.25,0,0,26.25,0,58.38V641.75c0,32,26.25,58.25,58.36,58.25H641.64c32.12,0,58.36-26.25,58.36-58.38V58.38c-.13-32.13-26.37-58.38-58.49-58.38h0Zm-225.83,561.25c-61.61,0-118.1-25.13-153.35-71.62-17-21.38-29.49-48.38-35.24-81.75h-40.87v-44.63h34.62v-10.75c0-6.25,.62-12.5,.62-18.88h-35.24v-44.62h42.12c8.12-34,23.25-62.88,43.37-86.13,35.87-40.25,86.11-64.13,145.22-64.13,38.37,0,71.61,8.75,94.23,18.87l-17.62,71.62c-16.37-6.87-42.12-15.13-69.74-15.13-30.12,0-57.86,10.13-77.24,34-8.75,10-15.75,24.5-20.12,40.87h156.6v44.62h-165.97c-.62,6.25-.62,13.25-.62,19.5v10h166.6v44.63h-157.72c4.37,18.88,11.25,33.38,20.75,44,20.12,22.63,49.74,32,81.11,32,28.87,0,58.49-9.37,71.61-16.38l15.12,69.75c-21.62,12.13-57.99,24.13-98.23,24.13h0Z"/></svg>