<?xml version="1.0" encoding="utf-8"?>
<!-- Generator: Adobe Illustrator 26.2.0, SVG Export Plug-In . SVG Version: 6.00 Build 0)  -->
<svg version="1.1" id="Layer_1" xmlns="http://www.w3.org/2000/svg" xmlns:xlink="http://www.w3.org/1999/xlink" x="0px" y="0px"
	 viewBox="0 0 700 700" style="enable-background:new 0 0 700 700;" xml:space="preserve">
<style type="text/css">
	.st0{fill:#020202;}
	.st1{fill:#FFFFFF;}
	.st2{font-family:'Lato-Black';}
	.st3{font-size:186.2854px;}
</style>
<path class="st0" d="M635,700H65c-35.9,0-65-29.1-65-65V65C0,29.1,29.1,0,65,0h570c35.9,0,65,29.1,65,65v570
	C700,670.9,670.9,700,635,700z"/>
<g>
	<path class="st1" d="M376.3,212c2.7,0,5.2-1.1,7.1-2.9s2.9-4.4,2.9-7.1V82c0-5.5-4.5-10-10-10s-10,4.5-10,10v120
		c0,2.7,1.1,5.2,2.9,7.1C371.1,210.9,373.6,212,376.3,212z"/>
	<path class="st1" d="M452.6,115.9c2.7,0,5.2-1.1,7.1-2.9c1.9-1.9,2.9-4.4,2.9-7.1v-54c0-5.5-4.5-10-10-10s-10,4.5-10,10v54
		c0,2.7,1.1,5.2,2.9,7.1C447.4,114.8,450,115.9,452.6,115.9z"/>
	<path class="st1" d="M272.9,115.9c2.7,0,5.2-1.1,7.1-2.9c1.9-1.9,2.9-4.4,2.9-7.1v-54c0-5.5-4.5-10-10-10s-10,4.5-10,10v54
		c0,2.7,1.1,5.2,2.9,7.1C267.7,114.8,270.2,115.9,272.9,115.9z"/>
</g>
<path class="st1" d="M465.9,611.2h-264c-27.5,0-50-22.5-50-50v-264c0-27.5,22.5-50,50-50h264c27.5,0,50,22.5,50,50v264
	C515.8,588.8,493.4,611.2,465.9,611.2z"/>
<text transform="matrix(1 0 0 1 229.6817 504.5614)" class="st2 st3">42</text>
</svg>
