<?xml version="1.0" encoding="UTF-8"?><svg xmlns="http://www.w3.org/2000/svg" viewBox="0 0 700 700"><defs><style>.cls-1{fill:#020202;}.cls-2{fill:#fff;}.cls-3{isolation:isolate;}</style></defs><g id="Layer_1"><path class="cls-1" d="M635,700H65c-35.9,0-65-29.1-65-65V65C0,29.1,29.1,0,65,0H635c35.9,0,65,29.1,65,65V635c0,35.9-29.1,65-65,65Z"/><g><g><path class="cls-2" d="M308.3,218c2.7,0,5.2-1.1,7.1-2.9s2.9-4.4,2.9-7.1V88c0-5.5-4.5-10-10-10s-10,4.5-10,10v120c0,2.7,1.1,5.2,2.9,7.1,1.9,1.8,4.4,2.9,7.1,2.9Z"/><path class="cls-2" d="M384.6,121.9c2.7,0,5.2-1.1,7.1-2.9,1.9-1.9,2.9-4.4,2.9-7.1V57.9c0-5.5-4.5-10-10-10s-10,4.5-10,10v54c0,2.7,1.1,5.2,2.9,7.1,1.9,1.8,4.5,2.9,7.1,2.9Z"/><path class="cls-2" d="M204.9,121.9c2.7,0,5.2-1.1,7.1-2.9,1.9-1.9,2.9-4.4,2.9-7.1V57.9c0-5.5-4.5-10-10-10s-10,4.5-10,10v54c0,2.7,1.1,5.2,2.9,7.1,1.9,1.8,4.4,2.9,7.1,2.9Z"/></g><path class="cls-2" d="M397.9,617.2H133.9c-27.5,0-50-22.5-50-50V303.2c0-27.5,22.5-50,50-50H397.9c27.5,0,50,22.5,50,50v264c-.1,27.6-22.5,50-50,50Z"/><g class="cls-3"><path d="M252.59,457.84h13.97v16.21c0,1.43-.48,2.67-1.44,3.73-.96,1.06-2.34,1.58-4.15,1.58h-8.38v31.2h-25.15v-31.2h-54.58c-1.8,0-3.43-.56-4.89-1.68-1.46-1.12-2.38-2.52-2.75-4.19l-2.98-14.25,62.78-84.39h27.57v82.99Zm-25.15-35.39c0-2.17,.08-4.52,.23-7.03,.15-2.51,.39-5.11,.7-7.78l-35.86,50.2h34.93v-35.39Z"/><path d="M325.8,373.36c6.71,0,12.74,.98,18.12,2.93,5.37,1.96,9.95,4.67,13.74,8.15,3.79,3.48,6.69,7.62,8.71,12.43,2.02,4.81,3.03,10.11,3.03,15.88,0,4.97-.7,9.56-2.1,13.79-1.4,4.22-3.31,8.24-5.73,12.06-2.42,3.82-5.23,7.51-8.43,11.08-3.2,3.57-6.6,7.19-10.2,10.85l-26.55,27.2c3.41-.99,6.78-1.78,10.11-2.38,3.32-.59,6.44-.88,9.36-.88h25.34c3.1,0,5.56,.85,7.36,2.56,1.8,1.71,2.7,3.96,2.7,6.75v16.77h-95.38v-9.31c0-1.8,.37-3.73,1.12-5.77,.75-2.05,2.05-3.91,3.91-5.59l39.12-39.4c3.35-3.35,6.27-6.55,8.76-9.59,2.48-3.04,4.53-6.04,6.15-8.99,1.61-2.95,2.83-5.9,3.63-8.85,.81-2.95,1.21-6.07,1.21-9.36,0-5.4-1.29-9.55-3.87-12.43-2.58-2.89-6.51-4.33-11.78-4.33-2.17,0-4.16,.31-5.96,.93-1.8,.62-3.42,1.46-4.84,2.52-1.43,1.06-2.65,2.3-3.68,3.73-1.02,1.43-1.85,2.98-2.47,4.66-.99,2.79-2.25,4.81-3.77,6.05-1.52,1.24-3.59,1.86-6.19,1.86-.62,0-1.29-.03-2-.09-.71-.06-1.44-.15-2.19-.28l-15.28-2.7c.99-6.77,2.9-12.67,5.73-17.7,2.82-5.03,6.33-9.22,10.52-12.58,4.19-3.35,8.99-5.85,14.39-7.5,5.4-1.64,11.21-2.47,17.42-2.47Z"/></g></g></g><g id="Layer_2"><g id="Layer_2-2"><path class="cls-2" d="M630.54,537.24l-29.32,29.32,29.32,30.32-29.32,29.32-29.32-29.32-29.4,29.32-29.32-29.32,29.32-29.32-29.32-29.32,29.32-29.32,29.32,29.32,29.32-29.32,29.4,28.32Z"/></g></g></svg>