<?xml version="1.0" encoding="utf-8"?>
<!-- Generator: Adobe Illustrator 26.2.0, SVG Export Plug-In . SVG Version: 6.00 Build 0)  -->
<svg version="1.1" xmlns="http://www.w3.org/2000/svg" xmlns:xlink="http://www.w3.org/1999/xlink" x="0px" y="0px"
	 viewBox="0 0 700 700" style="enable-background:new 0 0 700 700;" xml:space="preserve">
<style type="text/css">
	.st0{stroke:#231F20;stroke-width:4;stroke-miterlimit:10;}
	.st1{fill:#FFFFFF;}
</style>
<g id="Layer_1">
	<g>
		<path class="st0" d="M583.3,0H116.7C91,0,70,21,70,46.7v466.7C70,539,91,560,116.7,560h466.7c25.7,0,46.7-21,46.7-46.7V46.7
			C630,21,609,0,583.3,0L583.3,0z"/>
	</g>
	<g>
		<path class="st1" d="M258.3,182.8l-153.5,68.7l108.9,29l-1.3,5.8l-2.7,12.1l67.4,67.4l12.1-2.7l5.8-1.3l29,108.9l68.7-153.5
			c74.1-52.2,121.4-137.5,124.5-235.2l0.9-24.6l-24.6,0.9C395.8,61.4,310.6,108.7,258.3,182.8L258.3,182.8z M286,336.3l-46.9-46.4
			c2.2-8.9,4.5-17.4,7.6-25.4l64.7,64.3c-8.5,3.1-17,5.8-25.9,7.6L286,336.3z M439.6,202.4c-8.8,8.8-20.7,13.8-33.1,13.8
			c-12.4,0-24.4-4.9-33.2-13.7c-8.8-8.8-13.8-20.7-13.8-33.2s5-24.4,13.8-33.2c8.8-8.8,20.8-13.7,33.2-13.7c12.4,0,24.4,5,33.1,13.8
			c8.8,8.8,13.7,20.7,13.6,33.1c-0.1,12.4-5.1,24.3-14,32.9L439.6,202.4z"/>
		<path class="st1" d="M128.9,446.6l146-67l-79-79L128.9,446.6z"/>
	</g>
</g>
<g id="Layer_2">
	<path class="st1" d="M566.8,370.8l-34.4,34.4l34.4,34.4L532.4,474l-34.4-34.4L463.5,474l-34.4-34.4l34.4-34.4l-34.4-34.4l34.4-34.4
		l34.4,34.4l34.4-34.4L566.8,370.8z"/>
</g>
</svg>
