<?xml version="1.0" encoding="UTF-8"?><svg id="Layer_1" xmlns="http://www.w3.org/2000/svg" viewBox="0 0 704 704"><defs><style>.cls-1{fill:#fff;}.cls-2{stroke:#231f20;stroke-miterlimit:10;stroke-width:4px;}</style></defs><g id="Layer_1-2"><path class="cls-2" d="M643.51,2H60.36C28.25,2,2,28.25,2,60.38V643.75c0,32,26.25,58.25,58.36,58.25H643.64c32.12,0,58.36-26.25,58.36-58.38V60.38c-.13-32.13-26.37-58.38-58.49-58.38h0Z"/><g><path class="cls-1" d="M237.33,230.5L45.49,316.38l136.1,36.25-1.62,7.25-3.37,15.13,84.23,84.25,15.12-3.38,7.25-1.62,36.24,136.12,85.86-191.88c92.61-65.25,151.72-171.88,155.6-294l1.12-30.75-30.74,1.13c-122.1,3.88-228.58,63-293.95,155.63h0Zm34.62,191.87l-58.61-58c2.75-11.12,5.62-21.75,9.5-31.75l80.86,80.37c-10.62,3.88-21.25,7.25-32.37,9.5l.62-.13Zm191.97-167.37c-11,11-25.87,17.25-41.37,17.25s-30.49-6.12-41.49-17.12c-11-11-17.25-25.87-17.25-41.5s6.25-30.5,17.25-41.5c11-11,26-17.12,41.49-17.12s30.49,6.25,41.37,17.25c11,11,17.12,25.87,17,41.38-.12,15.5-6.37,30.38-17.5,41.12l.5,.25Z"/><path class="cls-1" d="M75.61,560.25l182.47-83.75-98.73-98.75-83.74,182.5Z"/></g></g><g id="Layer_2"><path class="cls-1" d="M622.89,465.5l-42.99,43,42.99,43-42.99,43-42.99-43-43.12,43-42.99-43,42.99-43-42.99-43,42.99-43,42.99,43,42.99-43,43.12,43Z"/></g></svg>