<?xml version="1.0" encoding="UTF-8"?><svg xmlns="http://www.w3.org/2000/svg" viewBox="0 0 700 700"><defs><style>.cls-1{fill:#fff;}.cls-2{fill:none;stroke:#fff;stroke-miterlimit:10;}</style></defs><g id="Layer_1"><g id="Layer_2"><path d="M621.24,700H79.01c-20.88,0-41.01-8.38-55.76-23.12-14.75-14.75-23.25-34.87-23.25-55.88V78.87C0,58,8.38,37.87,23.13,23.12,37.88,8.37,58.01,0,78.89,0H621.11c20.88,0,41.01,8.37,55.76,23.12,14.75,14.75,23.13,34.88,23.13,55.75V621c0,20.88-8.38,41-23.13,55.75-14.75,14.75-34.76,23.25-55.63,23.25Z"/></g><path class="cls-1" d="M473.89,418.13l-102.89-38.5c-7-2.75-11.25-10.5-8.38-18.25,2.13-5.62,7.75-9.13,13.25-9.13,1.38,.13,3.5,.13,4.88,.75l93.14,35v-33.5c-39.88-6.38-70.01-41.38-70.01-82.63s30.13-75.62,70.01-82.62V75.88h-176.41L165.84,207.5v442.38h70.01c7.75,0,14,6.25,14,14s-6.25,14-14,14H67.82c-7.75,0-14-6.25-14-14s6.25-14,14-14h70.01V61.88c0-7.75,6.25-14,14-14H487.9c7.75,0,14,6.25,14,14v127.25c39.88,6.38,70.01,41.38,70.01,82.63s-30.13,75.62-70.01,82.62v33.63l93.14-35c1.38-.62,3.5-.62,4.88-.62,5.5,0,11.13,3.5,13.25,9.12,2.88,7.62-1.38,15.37-8.38,18.12l-102.89,38.5v114.75l67.26,79.88c4.88,5.62,3.5,14.75-2.13,19.63-2.88,2.13-5.63,3.5-9.13,3.5s-7.75-1.37-10.5-4.88l-59.51-71.37-58.76,71.37c-2.75,3.5-6.25,4.88-10.5,4.88-3.5,0-6.38-1.37-9.13-3.5-6.38-4.88-7-14-2.13-19.63l66.51-79.75v-114.87h0Z"/></g><g id="Layer_2-2"><g id="Layer_1-2"><g><path class="cls-2" d="M165.84,168.26l92.39-92.38h-92.39v92.38Zm322.06,159.62c30.76,0,56.01-25.25,56.01-56s-25.25-56-56.01-56-56.01,25.25-56.01,56,25.25,56,56.01,56Z"/><path d="M165.84,168.26l92.39-92.38h-92.39v92.38Zm322.06,159.62c30.76,0,56.01-25.25,56.01-56s-25.25-56-56.01-56-56.01,25.25-56.01,56,25.25,56,56.01,56Z"/></g></g></g></svg>