<?xml version="1.0" encoding="utf-8"?>
<!-- Generator: Adobe Illustrator 26.3.1, SVG Export Plug-In . SVG Version: 6.00 Build 0)  -->
<svg version="1.1" xmlns="http://www.w3.org/2000/svg" xmlns:xlink="http://www.w3.org/1999/xlink" x="0px" y="0px"
	 viewBox="0 0 700 700" style="enable-background:new 0 0 700 700;" xml:space="preserve">
<style type="text/css">
	.st0{fill:#231F20;}
	.st1{fill:#FFFFFF;}
</style>
<g id="Layer_2">
	<g>
		<path d="M565.9,629.3H132.2c-16.7,0-32.8-6.7-44.6-18.5S69,582.9,69,566.1V132.4c0-16.7,6.7-32.8,18.5-44.6
			c11.8-11.8,27.9-18.5,44.6-18.5h433.7c16.7,0,32.8,6.7,44.6,18.5s18.5,27.9,18.5,44.6v433.7c0,16.7-6.7,32.8-18.5,44.6
			S582.6,629.3,565.9,629.3z M132.2,96c-9.6,0-18.9,3.8-25.7,10.6c-6.8,6.8-10.6,16.1-10.6,25.7v433.8c0,9.6,3.8,18.9,10.6,25.7
			s16.1,10.6,25.7,10.6h433.7c9.6,0,18.9-3.8,25.7-10.6s10.6-16.1,10.6-25.7V132.4c0-9.6-3.8-18.9-10.6-25.7s-16.1-10.6-25.7-10.6
			L132.2,96z"/>
	</g>
	<path d="M586,607.2H116.8c-11.6,0-21-9.4-21-21V117c0-11.6,9.4-21,21-21H586c11.6,0,21,9.4,21,21v469.2
		C607,597.8,597.6,607.2,586,607.2z"/>
</g>
<g id="Layer_1">
	<g>
		<path class="st0" d="M473.2,231.4c-24.6,0-44.8,20.2-44.8,44.8s20.2,44.8,44.8,44.8s44.8-20.2,44.8-44.8S497.8,231.4,473.2,231.4z
			 M215.6,119.4v73.9l73.9-73.9H215.6z"/>
	</g>
	<path class="st1" d="M573.4,347.9c-1.7-4.5-6.2-7.3-10.6-7.3c-1.1,0-2.8,0-3.9,0.5l-74.5,28v-26.9c31.9-5.6,56-33,56-66.1
		c0-33-24.1-61-56-66.1V108.2c0-6.2-5-11.2-11.2-11.2H204.4c-6.2,0-11.2,5-11.2,11.2v470.4h-56c-6.2,0-11.2,5-11.2,11.2
		s5,11.2,11.2,11.2h134.4c6.2,0,11.2-5,11.2-11.2s-5-11.2-11.2-11.2h-56V224.7l105.3-105.3H462v90.7c-31.9,5.6-56,33-56,66.1
		c0,33,24.1,61,56,66.1v142.8l-53.2,63.8c-3.9,4.5-3.4,11.8,1.7,15.7c2.2,1.7,4.5,2.8,7.3,2.8c3.4,0,6.2-1.1,8.4-3.9l47-57.1
		l47.6,57.1c2.2,2.8,5.6,3.9,8.4,3.9c2.8,0,5-1.1,7.3-2.8c4.5-3.9,5.6-11.2,1.7-15.7L484.4,485v-91.8l82.3-30.8
		C572.3,360.2,575.7,354,573.4,347.9z M215.6,193.3v-73.9h73.9L215.6,193.3z M473.2,321c-24.6,0-44.8-20.2-44.8-44.8
		s20.2-44.8,44.8-44.8s44.8,20.2,44.8,44.8S497.8,321,473.2,321z"/>
	<path class="st1" d="M387.5,341.1l74.5,28v24.1l-82.3-30.8c-5.6-2.2-9-8.4-6.7-14.6c1.7-4.5,6.2-7.3,10.6-7.3
		C384.7,340.6,386.4,340.6,387.5,341.1z"/>
	<polygon class="st0" points="215.6,119.4 289.5,119.4 215.6,193.3 	"/>
	<circle class="st0" cx="473.2" cy="276.2" r="44.8"/>
</g>
</svg>
