<?xml version="1.0" encoding="UTF-8"?><svg id="Layer_1" xmlns="http://www.w3.org/2000/svg" viewBox="0 0 700 700"><defs><style>.cls-1{fill:#00ade8;}.cls-2{fill:#fff;}.cls-3{fill:#ffe300;}.cls-4{fill:#d95f5b;}</style></defs><g id="Layer_2"><path d="M621.24,700H79.01c-20.88,0-41.01-8.38-55.76-23.12-14.75-14.75-23.25-34.87-23.25-55.88V78.87C0,58,8.38,37.87,23.13,23.12,37.88,8.38,58.01,0,78.89,0H621.11c20.88,0,41.01,8.37,55.76,23.12s23.13,34.88,23.13,55.75V621c0,20.88-8.38,41-23.13,55.75s-34.76,23.25-55.63,23.25Z"/></g><g id="Layer_1-2"><polygon class="cls-2" points="220.85 302.13 105.71 302.13 48.2 401.62 105.71 501.25 220.85 501.25 278.24 401.62 220.85 302.13"/><polygon class="cls-3" points="211.48 318.13 114.96 318.13 66.7 401.62 114.96 485.25 211.48 485.25 259.73 401.62 211.48 318.13"/><g><polygon class="cls-2" points="409.39 409.87 294.37 409.87 236.85 509.5 294.37 609.12 409.39 609.12 466.9 509.5 409.39 409.87"/><polygon class="cls-1" points="400.13 425.88 303.62 425.88 255.36 509.5 303.62 593 400.13 593 448.39 509.5 400.13 425.88"/></g><g><polygon class="cls-2" points="409.39 197.13 294.37 197.13 236.85 296.62 294.37 396.12 409.39 396.12 466.9 296.62 409.39 197.13"/><polygon class="cls-4" points="400.13 213.13 303.62 213.13 255.36 296.62 303.62 380.13 400.13 380.13 448.39 296.62 400.13 213.13"/></g><g><polygon class="cls-2" points="594.29 90.88 479.27 90.88 421.76 190.5 479.27 290.13 594.29 290.13 651.8 190.5 594.29 90.88"/><polygon class="cls-3" points="585.04 106.88 488.52 106.88 440.39 190.5 488.52 274 585.04 274 633.3 190.5 585.04 106.88"/></g></g></svg>