<?xml version="1.0" encoding="utf-8"?>
<!-- Generator: Adobe Illustrator 26.3.1, SVG Export Plug-In . SVG Version: 6.00 Build 0)  -->
<svg version="1.1" xmlns="http://www.w3.org/2000/svg" xmlns:xlink="http://www.w3.org/1999/xlink" x="0px" y="0px"
	 viewBox="0 0 700 700" style="enable-background:new 0 0 700 700;" xml:space="preserve">
<style type="text/css">
	.st0{fill:#FFFFFF;}
	.st1{fill:#FFE300;}
	.st2{fill:#00ADE8;}
	.st3{fill:#D95F5B;}
</style>
<g id="Layer_2">
	<g>
		<path d="M549.9,629.3H116.2c-16.7,0-32.8-6.7-44.6-18.5S53,582.9,53,566.1V132.4c0-16.7,6.7-32.8,18.5-44.6s27.9-18.5,44.6-18.5
			h433.7c16.7,0,32.8,6.7,44.6,18.5s18.5,27.9,18.5,44.6v433.7c0,16.7-6.7,32.8-18.5,44.6S566.6,629.3,549.9,629.3z M116.2,96
			c-9.6,0-18.9,3.8-25.7,10.6c-6.8,6.8-10.6,16.1-10.6,25.7v433.8c0,9.6,3.8,18.9,10.6,25.7s16.1,10.6,25.7,10.6h433.7
			c9.6,0,18.9-3.8,25.7-10.6s10.6-16.1,10.6-25.7V132.4c0-9.6-3.8-18.9-10.6-25.7s-16.1-10.6-25.7-10.6L116.2,96z"/>
	</g>
	<path d="M570,607.2H100.8c-11.6,0-21-9.4-21-21V117c0-11.6,9.4-21,21-21H570c11.6,0,21,9.4,21,21v469.2
		C591,597.8,581.6,607.2,570,607.2z"/>
</g>
<g id="Layer_1">
	<polygon class="st0" points="232.1,308.7 140,308.7 94,388.3 140,468 232.1,468 278,388.3 	"/>
	<polygon class="st1" points="224.6,321.5 147.4,321.5 108.8,388.3 147.4,455.2 224.6,455.2 263.2,388.3 	"/>
	<g>
		<polygon class="st0" points="382.9,394.9 290.9,394.9 244.9,474.6 290.9,554.3 382.9,554.3 428.9,474.6 		"/>
		<polygon class="st2" points="375.5,407.7 298.3,407.7 259.7,474.6 298.3,541.4 375.5,541.4 414.1,474.6 		"/>
	</g>
	<g>
		<polygon class="st0" points="382.9,224.7 290.9,224.7 244.9,304.3 290.9,383.9 382.9,383.9 428.9,304.3 		"/>
		<polygon class="st3" points="375.5,237.5 298.3,237.5 259.7,304.3 298.3,371.1 375.5,371.1 414.1,304.3 		"/>
	</g>
	<g>
		<polygon class="st0" points="530.8,139.7 438.8,139.7 392.8,219.4 438.8,299.1 530.8,299.1 576.8,219.4 		"/>
		<polygon class="st1" points="523.4,152.5 446.2,152.5 407.7,219.4 446.2,286.2 523.4,286.2 562,219.4 		"/>
	</g>
</g>
</svg>
