<?xml version="1.0" encoding="utf-8"?>
<!-- Generator: Adobe Illustrator 26.3.1, SVG Export Plug-In . SVG Version: 6.00 Build 0)  -->
<svg version="1.1" xmlns="http://www.w3.org/2000/svg" xmlns:xlink="http://www.w3.org/1999/xlink" x="0px" y="0px"
	 viewBox="0 0 700 700" style="enable-background:new 0 0 700 700;" xml:space="preserve">
<style type="text/css">
	.st0{fill:#FFFFFF;}
	.st1{display:none;}
</style>
<g id="Layer_2">
	<g>
		<path d="M566.1,627.9H132.4c-16.7,0-32.8-6.7-44.6-18.5s-18.5-27.9-18.5-44.6V131c0-16.7,6.7-32.8,18.5-44.6s27.9-18.5,44.6-18.5
			h433.7c16.7,0,32.8,6.7,44.6,18.5s18.5,27.9,18.5,44.6v433.7c0,16.7-6.7,32.8-18.5,44.6S582.8,627.8,566.1,627.9z M132.4,94.5
			c-9.6,0-18.9,3.8-25.7,10.6C99.9,112,96,121.2,96,130.9v433.8c0,9.6,3.8,18.9,10.6,25.7s16.1,10.6,25.7,10.6h433.7
			c9.6,0,18.9-3.8,25.7-10.6s10.6-16.1,10.6-25.7V131c0-9.6-3.8-18.9-10.6-25.7s-16.1-10.6-25.7-10.6L132.4,94.5z"/>
	</g>
	<path d="M586.2,605.7H117c-11.6,0-21-9.4-21-21V115.5c0-11.6,9.4-21,21-21h469.2c11.6,0,21,9.4,21,21v469.2
		C607.2,596.3,597.8,605.7,586.2,605.7z"/>
</g>
<g id="Layer_1">
	<g id="Layer_1_00000153704789349541421220000012953822551276113599_">
		<g>
			<path class="st0" d="M173.4,172.3c-59.6,59.6-59.6,156.3,0,216c55,55,141.5,59.2,201.3,12.8l55.2,55.2
				c-3.9,5.3-3.5,12.8,1.3,17.5l91.3,91.3c12.1,12.1,31.6,12.1,43.7,0c12.1-12.1,12.1-31.6,0-43.7l-91.3-91.3
				c-4.8-4.8-12.2-5.2-17.5-1.3l-55.2-55.2c46.4-59.9,42.2-146.3-12.8-201.3C329.8,112.6,233,112.6,173.4,172.3L173.4,172.3z
				 M189.2,188c50.9-50.9,133.4-50.9,184.3,0s50.9,133.4,0,184.3s-133.4,50.9-184.3,0S138.3,238.9,189.2,188z"/>
		</g>
	</g>
	<g id="Layer_2_00000063597862753455030340000003382821534950689708_" class="st1">
	</g>
</g>
</svg>
