<?xml version="1.0" encoding="UTF-8"?><svg id="Layer_1" xmlns="http://www.w3.org/2000/svg" viewBox="0 0 700 700"><defs><style>.cls-1{fill:#fff;}</style></defs><g id="Layer_2"><path d="M621.11,700H78.89c-20.88,0-41.01-8.38-55.76-23.12-14.75-14.75-23.13-34.88-23.13-55.75V78.87C0,58,8.38,37.87,23.13,23.12S58.01,0,78.89,0H621.11c20.88,0,41.01,8.37,55.76,23.12,14.75,14.75,23.13,34.88,23.13,55.75V621c0,20.88-8.38,41-23.13,55.75-14.75,14.75-34.88,23.12-55.76,23.25Z"/></g><g id="Layer_1-2"><g id="Layer_1-3"><path class="cls-1" d="M130.15,130.5c-74.51,74.5-74.51,195.38,0,270,68.76,68.75,176.91,74,251.67,16l69.01,69c-4.88,6.62-4.38,16,1.63,21.88l114.15,114.12c15.13,15.12,39.51,15.12,54.63,0,15.13-15.12,15.13-39.5,0-54.63l-114.15-114.12c-6-6-15.25-6.5-21.88-1.62l-69.01-69c58.01-74.87,52.76-182.88-16-251.63-74.51-74.62-195.53-74.62-270.05,0h0Zm19.75,19.62c63.64-63.62,166.78-63.62,230.42,0,63.64,63.62,63.64,166.75,0,230.37-63.64,63.62-166.78,63.62-230.42,0-63.64-63.62-63.64-166.75,0-230.37Z"/></g></g></svg>