<?xml version="1.0" encoding="utf-8"?>
<!-- Generator: Adobe Illustrator 26.2.0, SVG Export Plug-In . SVG Version: 6.00 Build 0)  -->
<svg version="1.1" id="Layer_1" xmlns="http://www.w3.org/2000/svg" xmlns:xlink="http://www.w3.org/1999/xlink" x="0px" y="0px"
	 viewBox="0 0 700 700" style="enable-background:new 0 0 700 700;" xml:space="preserve">
<g>
	<path d="M583.3,0H116.7C91,0,70,21,70,46.7v466.7C70,539,91,560,116.7,560h466.7c25.7,0,46.7-21,46.7-46.7V46.7
		C630,21,609,0,583.3,0L583.3,0z M402.6,449c-49.3,0-94.5-20.1-122.7-57.3c-13.6-17.1-23.6-38.7-28.2-65.4H219v-35.7h27.7V282
		c0-5,0.5-10,0.5-15.1H219v-35.7h33.7c6.5-27.2,18.6-50.3,34.7-68.9c28.7-32.2,68.9-51.3,116.2-51.3c30.7,0,57.3,7,75.4,15.1
		l-14.1,57.3c-13.1-5.5-33.7-12.1-55.8-12.1c-24.1,0-46.3,8.1-61.8,27.2c-7,8-12.6,19.6-16.1,32.7h125.3v35.7l-132.8,0
		c-0.5,5-0.5,10.6-0.5,15.6v8h133.3v35.7l-126.2,0c3.5,15.1,9,26.7,16.6,35.2c16.1,18.1,39.8,25.6,64.9,25.6
		c23.1,0,46.8-7.5,57.3-13.1l12.1,55.8C463.9,439.4,434.8,449,402.6,449L402.6,449z"/>
</g>
</svg>
