<?xml version="1.0" encoding="utf-8"?>
<!-- Generator: Adobe Illustrator 26.3.1, SVG Export Plug-In . SVG Version: 6.00 Build 0)  -->
<svg version="1.1" id="Layer_1" xmlns="http://www.w3.org/2000/svg" xmlns:xlink="http://www.w3.org/1999/xlink" x="0px" y="0px"
	 viewBox="570 570 560 560" style="enable-background:new 0 0 1700.8 1700.8;" xml:space="preserve">
<style type="text/css">
	.st0{fill:#010101;}
	.st1{fill:#FFFFFF;}
</style>
<path class="st0" d="M1055.6,1110.3H644.4c-30.2,0-54.7-24.5-54.7-54.7V644.3c0-30.2,24.5-54.7,54.7-54.7h411.3
	c30.2,0,54.7,24.5,54.7,54.7v411.3C1110.4,1085.8,1085.9,1110.3,1055.6,1110.3z"/>
<g>
	<path class="st0" d="M1066.8,1130H633.2c-16.7,0-32.8-6.7-44.6-18.5s-18.5-27.9-18.5-44.6V633.1c0-16.7,6.7-32.8,18.5-44.6
		s27.9-18.5,44.6-18.5h433.7c16.7,0,32.8,6.7,44.6,18.5c11.8,11.8,18.5,27.9,18.5,44.6v433.7c0,16.7-6.7,32.8-18.5,44.6
		C1099.6,1123.3,1083.6,1130,1066.8,1130z M633.2,596.7c-9.6,0-18.9,3.8-25.7,10.6c-6.8,6.8-10.6,16.1-10.6,25.7v433.8
		c0,9.6,3.8,18.9,10.6,25.7c6.8,6.8,16.1,10.6,25.7,10.6h433.7c9.6,0,18.9-3.8,25.7-10.6c6.8-6.8,10.6-16.1,10.6-25.7V633.2
		c0-9.6-3.8-18.9-10.6-25.7c-6.8-6.8-16.1-10.6-25.7-10.6L633.2,596.7z"/>
	<path class="st1" d="M1001.7,774.3L926,849.9l75.6,75.6l-75.6,75.6l-75.6-75.6l-75.6,75.6l-75.6-75.6l75.6-75.6l-75.6-75.6
		l75.6-75.6l75.6,75.6l75.6-75.6L1001.7,774.3z"/>
</g>
</svg>
