<?xml version="1.0" encoding="UTF-8"?><svg id="Layer_1" xmlns="http://www.w3.org/2000/svg" viewBox="0 0 700 700"><defs><style>.cls-1{fill:#fff;}.cls-2{fill:#231f20;}.cls-3{isolation:isolate;}</style></defs><g id="Layer_2"><path d="M621.24,700H79.01c-20.88,0-41.01-8.38-55.76-23.12-14.75-14.75-23.25-34.87-23.25-55.88V78.87C0,58,8.38,37.87,23.13,23.12S58.01,0,78.89,0H621.11c20.88,0,41.01,8.37,55.76,23.12,14.75,14.75,23.13,34.88,23.13,55.75V621c0,20.88-8.38,41-23.13,55.75s-34.76,23.25-55.63,23.25Z"/></g><path class="cls-1" d="M578.85,112.13h-227.54c-19.38,0-35.01,15.62-35.01,35v96.25H123.77c-19.38,0-35.01,15.62-35.01,35v131.25c0,19.38,15.63,35,35.01,35h26.25v61.25c0,3.5,2.13,6.75,5.38,8,1,.5,2.25,.75,3.38,.75,2.25,0,4.5-.88,6.25-2.5l67.39-67.5h118.9c19.38,0,35.01-15.62,35.01-35v-96.25h83.89l67.39,67.5c1.63,1.62,4,2.5,6.25,2.5,1.13,0,2.25-.13,3.38-.75,3.38-1.38,5.38-4.5,5.38-8v-61.25h26.25c19.38,0,35.01-15.62,35.01-35V147.13c0-19.38-15.63-35-35.01-35h-.02Zm-210.04,192.5v105c0,9.63-7.88,17.5-17.5,17.5h-122.52c-2.38,0-4.5,1-6.25,2.5l-55.01,55.13v-48.88c0-4.87-3.88-8.75-8.75-8.75h-35.01c-9.63,0-17.5-7.87-17.5-17.5v-131.25c0-9.63,7.88-17.5,17.5-17.5h227.54c9.63,0,17.5,7.87,17.5,17.5v26.25Z"/><g class="cls-3"><path class="cls-1" d="M230.75,309.15c.71-1.31,1.78-2.19,3.21-2.64,1.42-.45,3.21-.67,5.34-.67s3.86,.19,5.17,.56c1.31,.38,2.29,.83,2.93,1.35,.64,.53,1.11,1.31,1.41,2.36,.45,1.2,.67,3.11,.67,5.74v62.44c0,1.8-.06,3.11-.17,3.94-.11,.83-.47,1.8-1.07,2.93-1.05,2.02-3.98,3.04-8.78,3.04-2.92,0-4.95-.22-6.07-.67s-2.06-1.16-2.81-2.14c-16.88-22.5-27.98-37.2-33.3-44.1v37.01c0,1.8-.06,3.11-.17,3.94-.11,.83-.47,1.8-1.07,2.93-1.05,2.02-3.98,3.04-8.77,3.04s-7.5-1.01-8.55-3.04c-.6-1.12-.96-2.14-1.07-3.04-.11-.9-.17-2.21-.17-3.94v-62.77c0-2.85,.35-4.93,1.07-6.24,.71-1.31,1.78-2.19,3.21-2.64,1.42-.45,3.26-.67,5.51-.67s4.03,.21,5.34,.62c1.31,.41,2.23,.88,2.76,1.41,.3,.23,1.16,1.2,2.59,2.92,15.82,21.53,26.4,35.74,31.73,42.64v-38.02c0-2.85,.35-4.93,1.07-6.24Z"/><path class="cls-1" d="M278.39,371.53h30.6c2.47,0,4.27,.28,5.4,.84s1.87,1.45,2.25,2.64c.37,1.2,.56,2.79,.56,4.78s-.19,3.58-.56,4.78c-.38,1.2-1.01,2.02-1.91,2.47-1.43,.75-3.38,1.12-5.85,1.12h-40.5c-5.25,0-8.32-1.42-9.23-4.28-.45-1.2-.67-3.11-.67-5.74v-62.55c0-1.72,.06-3.02,.17-3.88,.11-.86,.47-1.86,1.07-2.98,1.05-2.03,3.97-3.04,8.78-3.04,5.25,0,8.36,1.39,9.34,4.16,.37,1.28,.56,3.23,.56,5.85v55.8Z"/></g><g class="cls-3"><path class="cls-2" d="M415.85,231.34h34.65c1.72,0,3.02,.06,3.88,.17,.86,.11,1.86,.47,2.98,1.07,2.03,1.05,3.04,3.98,3.04,8.77,0,5.25-1.39,8.33-4.16,9.23-1.28,.45-3.23,.67-5.85,.67h-44.55c-5.25,0-8.32-1.42-9.22-4.28-.45-1.2-.68-3.11-.68-5.74v-62.55c0-3.83,.71-6.43,2.14-7.82,1.42-1.39,4.12-2.08,8.1-2.08h44.32c1.72,0,3.02,.06,3.88,.17,.86,.11,1.86,.47,2.98,1.07,2.03,1.05,3.04,3.98,3.04,8.77,0,5.25-1.39,8.33-4.16,9.23-1.28,.45-3.23,.67-5.85,.67h-34.54v11.36h22.27c1.72,0,3.02,.06,3.88,.17,.86,.11,1.86,.47,2.98,1.07,2.03,1.05,3.04,3.98,3.04,8.78,0,5.25-1.43,8.33-4.28,9.22-1.28,.45-3.22,.67-5.85,.67h-22.05v11.36Z"/><path class="cls-2" d="M520.98,172.22c.71-1.31,1.78-2.19,3.21-2.64,1.42-.45,3.21-.67,5.34-.67s3.86,.19,5.17,.56c1.31,.38,2.29,.83,2.93,1.35,.64,.53,1.11,1.31,1.41,2.36,.45,1.2,.67,3.11,.67,5.74v62.44c0,1.8-.06,3.11-.17,3.94-.11,.83-.47,1.8-1.07,2.93-1.05,2.02-3.98,3.04-8.78,3.04-2.93,0-4.95-.22-6.08-.67s-2.06-1.16-2.81-2.14c-16.88-22.5-27.98-37.2-33.3-44.1v37.01c0,1.8-.06,3.11-.17,3.94-.11,.83-.47,1.8-1.07,2.93-1.05,2.02-3.98,3.04-8.77,3.04s-7.5-1.01-8.55-3.04c-.6-1.12-.96-2.14-1.07-3.04-.11-.9-.17-2.21-.17-3.94v-62.77c0-2.85,.36-4.93,1.07-6.24,.71-1.31,1.78-2.19,3.21-2.64,1.42-.45,3.26-.67,5.51-.67s4.03,.21,5.34,.62c1.31,.41,2.23,.88,2.76,1.41,.3,.23,1.16,1.2,2.59,2.92,15.82,21.53,26.4,35.74,31.73,42.64v-38.02c0-2.85,.35-4.93,1.07-6.24Z"/></g></svg>