<?xml version="1.0" encoding="UTF-8"?><svg id="Layer_1" xmlns="http://www.w3.org/2000/svg" viewBox="0 0 700 700"><defs><style>.cls-1,.cls-2{fill:#fff;}.cls-3{fill:#231f20;}.cls-3,.cls-2{font-family:FredokaOne-Regular, 'Fredoka One';font-size:112.5px;isolation:isolate;}</style></defs><g id="Layer_2"><path d="M621.24,700H79.01c-20.88,0-41.01-8.38-55.76-23.12-14.75-14.75-23.25-34.87-23.25-55.88V78.87C0,58,8.38,37.87,23.13,23.12,37.88,8.37,58.01,0,78.89,0H621.11c20.88,0,41.01,8.37,55.76,23.12,14.75,14.75,23.13,34.88,23.13,55.75V621c0,20.88-8.38,41-23.13,55.75-14.75,14.75-34.76,23.25-55.63,23.25Z"/></g><g id="Layer_1-2"><g id="Layer_1-3"><path class="cls-1" d="M578.85,112.13h-227.54c-19.38,0-35.01,15.62-35.01,35v96.25H123.77c-19.38,0-35.01,15.62-35.01,35v131.25c0,19.38,15.63,35,35.01,35h26.25v61.25c0,3.5,2.13,6.75,5.38,8,1,.5,2.25,.75,3.38,.75,2.25,0,4.5-.88,6.25-2.5l67.39-67.5h118.9c19.38,0,35.01-15.62,35.01-35v-96.25h83.89l67.39,67.5c1.63,1.62,4,2.5,6.25,2.5,1.13,0,2.25-.13,3.38-.75,3.38-1.38,5.38-4.5,5.38-8v-61.25h26.25c19.38,0,35.01-15.62,35.01-35V147.13c0-19.38-15.63-35-35.01-35h0Zm-210.04,192.5v105c0,9.63-7.88,17.5-17.5,17.5h-122.52c-2.38,0-4.5,1-6.25,2.5l-55.01,55.13v-48.88c0-4.87-3.88-8.75-8.75-8.75h-35.01c-9.63,0-17.5-7.87-17.5-17.5v-131.25c0-9.63,7.88-17.5,17.5-17.5h227.54c9.63,0,17.5,7.87,17.5,17.5v26.25Z"/><text class="cls-2" transform="translate(172.98 388.18)"><tspan x="0" y="0">NL</tspan></text><text class="cls-3" transform="translate(391.44 251.25)"><tspan x="0" y="0">EN</tspan></text></g></g></svg>