<?xml version="1.0" encoding="utf-8"?>
<!-- Generator: Adobe Illustrator 26.3.1, SVG Export Plug-In . SVG Version: 6.00 Build 0)  -->
<svg version="1.1" xmlns="http://www.w3.org/2000/svg" xmlns:xlink="http://www.w3.org/1999/xlink" x="0px" y="0px"
	 viewBox="0 0 700 700" style="enable-background:new 0 0 700 700;" xml:space="preserve">
<style type="text/css">
	.st0{fill:#FFFFFF;}
	.st1{font-family:'FredokaOne-Regular';}
	.st2{font-size:90px;}
	.st3{fill:#231F20;}
</style>
<g id="Layer_2">
	<g>
		<path d="M565.9,629.3H132.2c-16.7,0-32.8-6.7-44.6-18.5S69,582.9,69,566.1V132.4c0-16.7,6.7-32.8,18.5-44.6
			c11.8-11.8,27.9-18.5,44.6-18.5h433.7c16.7,0,32.8,6.7,44.6,18.5s18.5,27.9,18.5,44.6v433.7c0,16.7-6.7,32.8-18.5,44.6
			S582.6,629.3,565.9,629.3z M132.2,96c-9.6,0-18.9,3.8-25.7,10.6c-6.8,6.8-10.6,16.1-10.6,25.7v433.8c0,9.6,3.8,18.9,10.6,25.7
			s16.1,10.6,25.7,10.6h433.7c9.6,0,18.9-3.8,25.7-10.6s10.6-16.1,10.6-25.7V132.4c0-9.6-3.8-18.9-10.6-25.7s-16.1-10.6-25.7-10.6
			L132.2,96z"/>
	</g>
	<path d="M586,607.2H116.8c-11.6,0-21-9.4-21-21V117c0-11.6,9.4-21,21-21H586c11.6,0,21,9.4,21,21v469.2
		C607,597.8,597.6,607.2,586,607.2z"/>
</g>
<g id="Layer_1">
	<g id="Layer_2_00000039853516839734117290000006880635139660673727_">
	</g>
	<g id="Layer_1_00000037663308257586791220000014713380407306489770_">
		<g>
			<path class="st0" d="M532,159H350c-15.5,0-28,12.5-28,28v77H168c-15.5,0-28,12.5-28,28v105c0,15.5,12.5,28,28,28h21v49
				c0,2.8,1.7,5.4,4.3,6.4c0.8,0.4,1.8,0.6,2.7,0.6c1.8,0,3.6-0.7,5-2l53.9-54H350c15.5,0,28-12.5,28-28v-77h67.1l53.9,54
				c1.3,1.3,3.2,2,5,2c0.9,0,1.8-0.1,2.7-0.6c2.7-1.1,4.3-3.6,4.3-6.4v-49h21c15.5,0,28-12.5,28-28V187C560,171.5,547.5,159,532,159
				L532,159z M364,313v84c0,7.7-6.3,14-14,14h-98c-1.9,0-3.6,0.8-5,2l-44,44.1V418c0-3.9-3.1-7-7-7h-28c-7.7,0-14-6.3-14-14V292
				c0-7.7,6.3-14,14-14h182c7.7,0,14,6.3,14,14V313z"/>
		</g>
		<text transform="matrix(1 0 0 1 207.3558 379.8438)" class="st0 st1 st2">NL</text>
		<text transform="matrix(1 0 0 1 382.0988 270.2975)" class="st3 st1 st2">EN</text>
	</g>
</g>
</svg>
