<?xml version="1.0" encoding="UTF-8"?><svg id="Layer_1" xmlns="http://www.w3.org/2000/svg" viewBox="0 0 1984.25 1984.25"><defs><style>.cls-1{font-family:Lato-Black, Lato;font-size:660.06px;}.cls-1,.cls-2{fill:#fff;}.cls-3{fill:#231f20;font-family:MyriadPro-Regular, 'Myriad Pro';font-size:42.52px;}.cls-4{fill:#010101;}.cls-5{letter-spacing:-.01em;}.cls-6{letter-spacing:0em;}</style></defs><rect class="cls-4" x="69.56" y="74.49" width="1845.14" height="1845.14"/><path class="cls-4" d="M1760.49,1984.25H223.77c-59.31-.11-116.17-23.72-158.1-65.66C23.72,1876.65,.11,1819.79,0,1760.49V223.77c.11-59.31,23.72-116.17,65.66-158.1C107.6,23.72,164.46,.11,223.77,0H1760.49c59.31,.11,116.17,23.72,158.1,65.66,41.94,41.94,65.55,98.8,65.66,158.1V1760.49c-.11,59.31-23.72,116.17-65.66,158.1-41.94,41.94-98.8,65.55-158.1,65.66ZM223.77,94.51c-34.17,0-66.95,13.56-91.12,37.73-24.17,24.17-37.73,56.94-37.73,91.12V1760.5c0,34.17,13.56,66.95,37.73,91.12,24.16,24.17,56.94,37.73,91.12,37.73H1760.49c34.17,0,66.95-13.56,91.12-37.73,24.17-24.16,37.73-56.94,37.73-91.12V223.78c0-34.17-13.56-66.95-37.73-91.12-24.16-24.17-56.94-37.73-91.12-37.73l-1536.72-.43Z"/><text class="cls-3" transform="translate(399.68 735.47)"><tspan class="cls-5" x="0" y="0">L</tspan><tspan x="19.47" y="0">o</tspan><tspan class="cls-6" x="42.82" y="0">r</tspan><tspan x="56.3" y="0">em ipsum</tspan></text><g><text class="cls-1" transform="translate(457.5 900.66)"><tspan x="0" y="0">1</tspan></text><path class="cls-2" d="M1529.54,1212.09l-121.99,121.99,122,122-122.01,121.99-121.99-121.99-122,122-122-122,122-122-122-122,122-122,122,122,122-122,121.99,122.01Z"/><text class="cls-1" transform="translate(457.5 1546.11)"><tspan x="0" y="0">2</tspan></text><path class="cls-2" d="M1529.54,534.67l-121.99,121.99,122,122-122.01,121.99-121.99-121.99-122,122-122-122,122-122-122-122,122-122,122,122,122-122,121.99,122.01Z"/></g></svg>