<?xml version="1.0" encoding="UTF-8"?><svg id="Layer_1" xmlns="http://www.w3.org/2000/svg" viewBox="0 0 1984.25 1984.25"><defs><style>.cls-1{fill:#010101;}.cls-2{fill:#fff;}</style></defs><path class="cls-1" d="M1760.49,1984.25H223.77c-59.31-.11-116.17-23.72-158.1-65.66C23.72,1876.65,.11,1819.79,0,1760.49V223.77c.11-59.31,23.72-116.17,65.66-158.1C107.6,23.72,164.46,.11,223.77,0H1760.49c59.31,.11,116.17,23.72,158.1,65.66,41.94,41.94,65.55,98.8,65.66,158.1V1760.49c-.11,59.31-23.72,116.17-65.66,158.1-41.94,41.94-98.8,65.55-158.1,65.66Z"/><g><path class="cls-2" d="M540.66,826.73h92.41v-242.57c0-11.88,.33-24.31,.99-37.29l-54.46,45.21c-3.52,2.86-7.04,4.9-10.56,6.11-3.52,1.21-6.93,1.81-10.23,1.81-5.72,0-10.84-1.26-15.35-3.8-4.51-2.53-7.87-5.22-10.07-8.09l-32.34-42.9,149.83-125.74h84.49v407.26h79.21v73.93h-273.93v-73.93Z"/><path class="cls-2" d="M1529.54,1212.09l-121.99,121.99,122,122-122.01,121.99-121.99-121.99-122,122-122-122,122-122-122-122,122-122,122,122,122-122,121.99,122.01Z"/><path class="cls-2" d="M656.17,1059.97c23.76,0,45.16,3.47,64.19,10.4,19.03,6.93,35.26,16.56,48.68,28.88,13.42,12.33,23.71,27.01,30.86,44.06,7.15,17.05,10.73,35.81,10.73,56.27,0,17.6-2.48,33.88-7.43,48.84-4.95,14.96-11.72,29.21-20.3,42.74-8.58,13.53-18.54,26.62-29.87,39.27-11.33,12.65-23.38,25.47-36.14,38.45l-94.06,96.37c12.1-3.52,24.04-6.32,35.81-8.42,11.77-2.09,22.82-3.13,33.17-3.13h89.77c11,0,19.69,3.03,26.07,9.08,6.38,6.05,9.57,14.03,9.57,23.93v59.41H479.28v-33c0-6.38,1.32-13.2,3.96-20.46,2.64-7.26,7.26-13.86,13.86-19.8l138.61-139.6c11.88-11.88,22.22-23.21,31.02-33.99,8.8-10.78,16.06-21.4,21.78-31.85,5.72-10.45,10.01-20.9,12.87-31.35,2.86-10.45,4.29-21.5,4.29-33.17,0-19.14-4.57-33.83-13.7-44.06-9.13-10.23-23.05-15.35-41.75-15.35-7.7,0-14.74,1.1-21.12,3.3-6.38,2.2-12.1,5.17-17.16,8.91-5.06,3.74-9.41,8.14-13.04,13.2-3.63,5.06-6.55,10.56-8.75,16.5-3.52,9.9-7.98,17.05-13.37,21.45-5.39,4.4-12.71,6.6-21.95,6.6-2.2,0-4.57-.11-7.1-.33-2.53-.22-5.12-.55-7.76-.99l-54.12-9.57c3.52-23.98,10.28-44.88,20.3-62.71,10.01-17.82,22.44-32.67,37.29-44.55,14.85-11.88,31.85-20.74,50.99-26.57,19.14-5.83,39.71-8.75,61.72-8.75Z"/><path class="cls-2" d="M1529.54,534.67l-121.99,121.99,122,122-122.01,121.99-121.99-121.99-122,122-122-122,122-122-122-122,122-122,122,122,122-122,121.99,122.01Z"/></g></svg>