<?xml version="1.0" encoding="UTF-8"?><svg xmlns="http://www.w3.org/2000/svg" viewBox="0 0 719.8 744.4"><defs><style>.cls-1{fill:#00ade8;}.cls-2{fill:#fff;}.cls-3{fill:#d95f5b;}</style></defs><g id="Layer_1"><g id="Layer_2"><path d="M640.91,700H98.69c-20.88,0-41.01-8.38-55.76-23.12-14.75-14.75-23.13-34.88-23.13-55.75V78.87c0-20.87,8.38-41,23.13-55.75C57.68,8.38,77.81,0,98.69,0H640.91c20.88,0,41.01,8.37,55.76,23.12,14.75,14.75,23.13,34.88,23.13,55.75V621c0,20.88-8.38,41-23.13,55.75s-34.88,23.12-55.76,23.25Z"/></g></g><g id="Layer_2-2"><g id="Layer_1-3"><path class="cls-2" d="M416.75,92.5l5.75-2.88,3.5-.62h13.25l12.63-2.88-5.13-2.88-30.38,1.12-1.75-.62-2.25,1.75-.63,2.88,2.25,2.88,2.75,1.25Zm-59.14,16l17.25-7.5,4.63-1.12,5.75-2.25h5.13l1.75-1.12-.63-.62-.63-1.75-.63-.62,7.5-.62,3.5-1.12,2.88-4-18.38,3.62-1.75,1.12-1.13,1.75-16.63,3.5h-2.88l-2.88,1.75-6.88,2.25-1.13,4,1.75,2.88h3.38v-.12Zm115.4-22.88v.62l.63,1.12,2.25-2.88,22.38-6.87h1.75v-1.75l-3.5-1.13-12.63,1.13-3.5,1.12-4.63,2.25-3.5,2.88,1.13,2.88-.38,.62Zm58.51-16.12l.63-1.13,.63-.62,.63-.62h-2.88l-1.38,1.25-.63,1.13,1.75,1.13,1.25-1.13Zm-16.63-1.13l4.63,1.75,1.75-1.75-6.88-2.88h-1.75v1.13l2.25,1.75Zm-191.03,66.62l2.88-4,9.75-9.75,3.5-1.12,1.75-1.12h3.5v-1.12l-6.38-1.12-8.63,5.13-8,7.5-5.13,6.87,4,1.75,2.75-3Zm282.8,12.63l1.13-3.5,.63-3.5v-3.37l-.63-5.75h-1.13l-9.25-2.25-4-2.25-.63-3.5-.63-1.75v-1.12l1.75-1.75v-1.12h-.63l-1.13,1.12-2.25,.62-1.63-.62-1.13-1.12-2.25,.62-5.13-2.88-4-1.12-1.13-1.12-.63-1.12-.63-.62v-.62l-2.88-2.25-.63-.62-4-17.25-1.75-1.75-2.25-.62-12.63-2.25-29.88,4.62-19,5.62-2.88,2.25-1.13,.62-1.13-.62-2.25-1.75-1-.5-24.75,.62-12.13,.62-8.63,4.62h-2.88l-4.63,3.5-20.13,8-4.63,4.13-5.75,1.12-2.25,.62-2.25,2.25-1.75,2.88-2.25,2.25-4.63,2.25-2.88,2.25-4.63,5.13-2.25,6.38-3.5,14.37-2.25,5.13-2.25,1.75-5.75,1.12-2.25,1.75-1.75,2.25-25.38,22.5-5.13,2.25-5.13,.62-2.88,1.12-5.13,4.62-2.88,1.75-5.13,.62-5.13-1.75-2.88-4,1.75-6.38-1.13-1.75-1.13,1.12-7.5-1.12-1.13,1.75-1.13,4-.63,5.13v4l-1.13,6.87-5.13,13.75-1.13,6.38-.63,2.88-2.25,10.38-5.13,39.5-2.88,5.75v1.75l-1.13,5.75-7.5,22.37-12.25,22.75-15.88,22.5-17.88,22.37-4,2.87-5.13,.62-5.75-1.12-.63,1.12-.63,1.75,1.13,3.5,2.25,8,.63,2.87-.63,.62-1.13,2.25-.63,1.75,.63,1.12,1.13,1.12,2.88,4.63,1.13,1.75-1.13,1.75-1.13,.62h-1.75l-3.5-1.75-4-1.12h-2.25l-1.13,1.12-8,2.25-3.5,2.25,1.13,5.75h2.25l.63-.62,2.25-.62h2.88l3.5-1.12,2.25-1.75,3.5,2.25,2.88,2.87,2.25,4,.63,6.87,1.75,2.87,8.63,2.87,2.88,2.25,1.13,1.12-4,.62-2.25,1.12-1.75,1.75-.63,1.75v2.25l.63,2.25,.63,1.75,2.25,2.25,1.13,.62h5.75l1.75,1.75,.63,4-2.88-2.25-3.5-1.12-11.5-.62h-2.88l-6.88,3.5,9.75,9.25,2.88,1.75,1.75,.62,4-.62h1.75l5.13,2.25,5.75,1.12,3.5,2.25,2.88,3.5,1.13,4.63-1.75,4.63-4,1.12h-5.75l-2.25-1.12-6.38,1.12-2.88-1.12-1.75-2.25-2.25-6.87-1.75-2.87-5.13-4.63-6.38-2.25-12.13-1.12v-1.12l.63-.62,2.25-1.12,1.13-.62-1.13-2.87-1.75-2.25-2.25-1.75-1.75-1.12-2.88-.62-33.76,3.5-13.25,8h-1.13l.63,3.5,1.13,2.25,4,3.5,1.75,2.25,1.75,3.5,1.75,2.87,2.25,1.12,6.88,1.75h2.88l5.13-1.75h1.75l5.13,4.63,7.5,4,3.5,3.5,1.13,.62h1.13l1.75-1.12,4.63-.62,1.75-1.12,1.13-2.25,4-6.87,1.75-1.12,5.13,.62,2.25,1.12,6.88,5.75,2.25,1.75,2.88,.62h11.5l3.5-.62,1.13-1.75,1.13,1.12,.63,1.75v2.25l.63,2.25,1.13,2.25,.63,.62h3.5l1.13,.62,2.88,1.75,2.25,1.12,5.13,.62h1.13l2.25-1.12v-.62l.63-2.87v-.62l-.63-1.75-2.88-3.5-.63-.62-.63-1.75v-2.25l.63-1.75,.63-1.12-1.75-1.75,6.88-4,4-1.75,2.25-1.12,3.5-.62h.63l1.75,.62,1.13,1.75v2.87l-1.13,2.25v2.25l.63,.62,1.75,1.12h2.25l2.88-.62,4,1.12h2.25l1.75-.62,1.13-1.12,9.75-12.13,4-2.25h1.75l2.25,1.12,.63,.62,1.75,1.12,1.13,1.75,.63,2.87-.63,1.75-1.13,2.25-.63,2.25v1.12l1.13,3.5-5.38-2.13h-1.13l-.63,2.25,2.88,1.12,8.63,.62,2.25,1.12,4.63,2.25,2.88-.62,1.13-1.75,1.75-1.75,1.75-2.87,1.13-1.12,.63-1.12,1.13-1.75,1.75-3.5v-.62l.63-1.12,1.75,1.12v.62l4,2.25,1.13,1.75,1.75,2.87-.63,3.5-1.13,2.87v1.75l-.63,2.87,.63,1.75,4,4.63,.63,1.75,1.13,4.63,.63,1.12,2.25,1.12,4.63-.62h2.25l2.25,2.87v6.87l2.25,.62,4.63-1.12,15,.62,2.88-1.12,5.13-3.5,.63-.62,1.75-1.12,2.88,.62,1.13,1.12,1.75,1.12,1.75,2.25,.63,.62,1.13,4,.63,4.63,2.88,2.25,6.88,2.25,1.13,.62,2.88,2.88h2.25l2.88-.62,2.25-.62h2.88l2.25,1.13,2.88,3.5,1.75,1.13,3.5-1.13h2.25l1.13,2.25,.63,1.13-1.13,1.13-1.13,.62-.63,2.25,2.88,2.87-.63,.62h-1.13l-.63,.62h-2.25v2.25l.63,.62-1.13,3.12-.63,1.13-1.13,1.13-1.13-1.13-1.13,.62-.63,1.13v3.5l1.75,2.25-2.25,4.63-5.13,8,2.88-.62h1.13l1.13,.62-.63,.62-1.13,1.75-1.75,4.63-1.75,2.25-.63,.62-2.25,1.13h-.63l-7.5,8-1.75,1.75v4l.63,.62,1.75,2.25,2.88,1.75h.63l2.25,1.13,1.75,.62v2.25l-.63,1.75-1.13,4,2.25,1.13h2.88l1.75-2.87v-.62l1.13-1.13,.63,.62h.63l2.25,2.87,1.13,1.13,10.88-.62,2.88,1.13,9.25,.62h1.13l1.75-.62,.63-2.25-.63-1.13-1.13-1.13-1.13-1.75-.63-2.25,1.75,.62,1.75-1.75,.63-2.25-.63-1.75v-1.75l1.13-1.75,1.75-1.13h2.88l1.13-1.75,.63-2.25v-1.75l-.63-4v-1.13l.63-1.13,.63-.62-4-1.13-2.88-2.25-1.13-1.13-.63-1.75v-2.87l.63-2.25,.63-1.75,.63-1.13-4.63,.62-3.5-1.13h-1.75l-1.75,.62-3.5,1.75-1.75,.62v-5.12l-1.75-5.75-.63-4.63,3.5-1.75,1.75,1.13,3.5,3.5,2.25-.62,1.75-1.75,2.25-5.12,1.75-1.75,11.5-9.25,6.88-4,1.75-2.25-2.88-2.25,2.88-2.25,1.13-.62-2.88-1.12-6.38,4-2.88-1.75-1.13-4,.63-4.63,1.13-4,1.13-2.25,2.88-3.5,5.75-11.5,1.13-1.12,2.88-2.25,1.13-1.75,.63-2.25,.63-4.63,.63-1.75-1.13-2.25v-3.88l1.13-4,.63-4-.63-3.5-1.25-7-5.13-5.75-8.63-11.5-.63-2.25,.63-2.87,1.13-4.63-7.5-4-2.88-3.5,1.75-5.75-1.75-1.12-2.88-2.25-1.13-.62h-3.5l-1.13-.62v-2.25l2.88-2.87v-4l-1.75-4-2.88-1.75,.63-1.75,2.25-1.12,5.13-1.12,2.25-1.12,2.25-1.75,1.75-1.12,5.13-1.12,4,1.12,2.88,.62,2.25,.62-1.75-2.87-4.63-4.63-1.75-1.12,4-2.25,4,1.75,4,3.5,4,1.75,4-.62h1.13l1.13,1.12,1.13,2.25,.63,.62,4.63,.62,2.25,1.12,.63,2.87,4.63-1.12,.63-2.25-1.13-4.63,8,2.25h2.25l2.25-1.12,6.38-4.63,12.63-4,11.5-.62,3.5-1.75,2.88-3.5,2.88-5.13,1.13-1.12h1.13l.63-.62v-2.5l-1.13-2.25-2.88-3.5-8-4.63-2.88-.62-2.25-1.75-.63-2.87,1.13-2.25,1.13-.62h1.13l1.75-.62,1.13-1.12,1.13-2.87,.63-1.12,2.25-2.25,1.75-1.12,8-1.12,1.75-1.12,2.88-5.75,2.25-2.25,5.13-2.25,2.25-2.25,2.88-4.63,1.13-1.75,5.75-3.5,.63-1.12-1.13-1.75-.63-5.13v-4l1.13-2.87,2.25-5.75,1.13-7.5-1.75-5.13-7.5-12.63-.63,.62-.63,1.12-1.13,1.12-2.88,1.12h-3.5l-4-.62-6.38-2.25-10.38-1.75-3.5-1.75-2.25-2.87-.63-2.87v-3.5l.25-3.75-1.75-3.5h2.25l6.88-3.5-4-3.5-1.13-1.12v-1.75l.63-1.75v-1.38l-1.13-2.25,4.63-2.87,4-1.12h12.13l6.88,2.25,6.38-1.12,1.75,.62,4.63,1.12,2.25-4.63,1.13-7.5,1.13-22.37,1.13-6.87,2.25-6.38,10.38-16.12,2.88-6.87,1.13-6.87v-7.5l-1.13-14.75-.63-1.75-1.13-1.75-.63-1.12v-2.13l.63-1.75,1-4.5Zm-165.15,137.63l-1.13,4.63-2.25,4-5.13,7.5-2.88,2.87-4,2.87-4,2.25-8,2.87-4,2.87-5.75,6.87-3.5,9.75-1.13,1.75-10.88,2.87-5.13-.62-5.75-2.87-11.5-8.62-2.25-.62-5.13,.62h-4l-2.25-.62-6.38-4.63-2.25-1.12-5.75-.62-2.25-.62-7.5-4.63,.63-1.12,.63-.62v-1.75l1.75,.62,.63,.62,1.13,.62v-1.75l1.75,1.12,1.13-2.25,1.13-3.5,1.75-1.75,1.13-.62,1.13-1.12,1.13-1.75,1.13-2.25-2.25-1.12v-.62l-.63-1.75-1.13-1.12,2.25-1.12h1.13l-.63-2.25-.63-.62,2.25-2.87-1.13-5.13-4-9.25-1.75-5.75v-5.13l1.75-3.5,4.63-.62,3.5,1.12,1.13,.62,2.25,2.25,3.5-1.12,7.5-5.13,2.25-2.25,1.75-5.13,1.75-1.75,4-2.25-.63-2.25-.63-2.25-.63-2.25-.63-1.12-6.38-2.88h-2.25l-1.75,.62-1.38,.5-1.13,1.12-1.75,1.12-1.75-1.12-1.75-1.75-1.13-.62-1.75-2.88-.63-13.25-.63-4.62-6.38-12.63-2.88-2.25,5.13-2.25,5.13-3.5,20.13-17.88,10.38-6.87,1.13,4.62,.63,1.75,1.13,2.25,1.13,.62,.63,2.88v2.88l-.63,2.25,1.13,2.25,.63,3.5v3.5l-2.25,2.88,1.75,3.5-1.13,1.75-2.25,1.12-1.13,2.25h-.63l-.63,.62v2.25l.63,1.12,.63,.62,1.13,.62,.63,1.12,2.88,2.25,4,1.12,8,.62,1.75,.62,2.88,1.75,1.75,.62,2.25-.62,1.13-.62,2.88-1.75,2.25-.62h1.75l9.25,2.88,1.13,1.12h-4.63l-4,2.88-2.88,4-2.25,5.13-1.13,5.13-1.13,8.63v8l2.25,3.5,1.75,1.12,2.88,5.75,1.13,1.75,2.25,.62,16.63-1.12,2.25,.62,1.75,1.12,1.13,2.25,1.13,3.5,1.75,7.5,.63,4-.37,4.12Zm-24.75-18.88l-3.5-3.5-2.25,1.75-7.5,2.25-2.25,1.75-5.75,5.75h-1l-2.25-.62-1.13,.62-2.88,8-1.13,1.12-4.63,1.75-5.75,5.13-9.25,4-5.13,5.13-8,4-3.5,3.5-2.25,1.12,.63,4,.63,2.87,.63,2.25,2.88,1.12,5.75-.62,2.25,.62,8.63,3.5,4,2.25,7.5,5.75,3.5,1.12,8.63-.62,4.63-1.75,2.88-3.5,.63-5.13-1.13-6.38,3.5-1.75,1.75-.62h2.25l1.75-1.12,2.88-4,1.75-1.12,3.5-.62,5.75-2.87,3.5-.62,2.88-.62,3.5-3.5,2.88-4,2.25-4,1.75-5.13v-4l-2.25-9.25-21.5-4Zm-245.54,187l5.75-.62,4-4h1.75l1.13,1.12,.63,1.12,.63,.62,5.13,2.25,2.25,1.75,.63,2.25,1.13,2.87,2.88,1.75,4.63,1.75h2.25l9.75-1.75,2.25-.62,2.25-1.12,1.13-2.25-.63-3.5-2.25-1.75-5.13-1.12-1.13-1.12-1.13-2.25-5.13-5.75-2.25-1.75-2.88-.62-12.13-.62-1.75-1.12h-2.88l-10.38,1.75-4.63,2.87-.63,6.38,1.75,2.25,3,1.25Zm57.39,60.25l-.63,.62-2.25,3.5-4-.62-1.75-1.75-2.88-.62-1.13-.62-1.13-1.12-1.25-2.87-2.25-.62-1.75-1.12-2.88-1.12h-2.88l-1.13,1.75-.63,4-1.75,2.25-12.13,4.63-2.88,.62-4.63-1.12h-5l-2.88-1.12-4-4-12.13-3.5-8-5.13h-1.75l-2.25,1.75-20.13,6.87,.63,5.13,.63,2.87-.63,4.63v4.63l1.13,3.5,.63,1.75,2.88,3.5,2.25,1.12,1.13,.62h4l5.13-.62h1.13v-1.75l-.63-2.25v-2.25l1.13-1.12,1.75-.62h2.25l5.13-1.12h3.5l2.88,.62,15.5,5.13,2.25,1.75,.63,2.87v4.63l1.75,2.25,1.13,.62h15l1.75-.62,1.13-.62,.63-.62,5.13-4,15.5-8,6.38-5.13,5.13-6.87,.63-1.12v-.62l1.13-4.63v-.62l-2.88-1.75-1.63-1.87Zm73.39-329.87l4-1.12,2.88-5.75,5.75-4.62,3.5-5.13,1.75-3.5,.63-2.88h-2.38v-1.12l2.25-2.25v-3.5l-1.13-4-1.75-2.88,.63-1.12v-1.12l-1.13-2.25h-4l-2.88,5.13-2.88,6.38-5.75,5.13-2.88,5.13-2.25,6.38-.63,5.75,2.25,5.13,4,2.25Z"/></g><g id="Layer_2-3"><circle class="cls-1" cx="414.25" cy="468.75" r="10.75"/><circle class="cls-3" cx="316.85" cy="325.5" r="10.75"/><circle class="cls-1" cx="462.5" cy="173.75" r="10.75"/><circle class="cls-1" cx="264.72" cy="424.12" r="10.75"/><circle class="cls-1" cx="352.48" cy="387.75" r="10.75"/></g></g></svg>