<?xml version="1.0" encoding="utf-8"?>
<!-- Generator: Adobe Illustrator 26.3.1, SVG Export Plug-In . SVG Version: 6.00 Build 0)  -->
<svg version="1.1" xmlns="http://www.w3.org/2000/svg" xmlns:xlink="http://www.w3.org/1999/xlink" x="0px" y="0px"
	 viewBox="0 0 700 700" style="enable-background:new 0 0 700 700;" xml:space="preserve">
<style type="text/css">
	.st0{display:none;}
	.st1{display:inline;}
	.st2{fill:#FFFFFF;}
	.st3{fill:#00ADE8;}
	.st4{fill:#D95F5B;}
</style>
<g id="Layer_2">
	<g>
		<path d="M566.1,627.9H132.4c-16.7,0-32.8-6.7-44.6-18.5s-18.5-27.9-18.5-44.6V131c0-16.7,6.7-32.8,18.5-44.6s27.9-18.5,44.6-18.5
			h433.7c16.7,0,32.8,6.7,44.6,18.5s18.5,27.9,18.5,44.6v433.7c0,16.7-6.7,32.8-18.5,44.6S582.8,627.8,566.1,627.9z M132.4,94.5
			c-9.6,0-18.9,3.8-25.7,10.6C99.9,112,96,121.2,96,130.9v433.8c0,9.6,3.8,18.9,10.6,25.7s16.1,10.6,25.7,10.6h433.7
			c9.6,0,18.9-3.8,25.7-10.6s10.6-16.1,10.6-25.7V131c0-9.6-3.8-18.9-10.6-25.7s-16.1-10.6-25.7-10.6L132.4,94.5z"/>
	</g>
	<path d="M586.2,605.7H117c-11.6,0-21-9.4-21-21V115.5c0-11.6,9.4-21,21-21h469.2c11.6,0,21,9.4,21,21v469.2
		C607.2,596.3,597.8,605.7,586.2,605.7z"/>
</g>
<g id="Layer_1">
	<g id="Layer_3" class="st0">
		<rect x="-12" y="52.2" class="st1" width="684.4" height="684.4"/>
	</g>
	<g id="Layer_1_00000005967738286394088550000005195281486511401148_">
		<g>
			<path class="st2" d="M386.8,141.9l4.6-2.3l2.8-0.5h10.6l10.1-2.3l-4.1-2.3l-24.3,0.9l-1.4-0.5l-1.8,1.4l-0.5,2.3l1.8,2.3
				L386.8,141.9z M339.5,154.7l13.8-6l3.7-0.9l4.6-1.8h4.1l1.4-0.9l-0.5-0.5l-0.5-1.4l-0.5-0.5l6-0.5l2.8-0.9l2.3-3.2L362,141
				l-1.4,0.9l-0.9,1.4l-13.3,2.8h-2.3l-2.3,1.4l-5.5,1.8l-0.9,3.2l1.4,2.3H339.5z M431.8,136.4v0.5l0.5,0.9l1.8-2.3L452,130h1.4
				v-1.4l-2.8-0.9l-10.1,0.9l-2.8,0.9l-3.7,1.8l-2.8,2.3l0.9,2.3L431.8,136.4z M478.6,123.5l0.5-0.9l0.5-0.5l0.5-0.5h-2.3l-1.1,1
				l-0.5,0.9l1.4,0.9L478.6,123.5z M465.3,122.6l3.7,1.4l1.4-1.4l-5.5-2.3h-1.4v0.9L465.3,122.6z M312.5,175.9l2.3-3.2l7.8-7.8
				l2.8-0.9l1.4-0.9h2.8v-0.9l-5.1-0.9l-6.9,4.1l-6.4,6l-4.1,5.5l3.2,1.4L312.5,175.9z M538.7,186l0.9-2.8l0.5-2.8v-2.7l-0.5-4.6
				h-0.9l-7.4-1.8l-3.2-1.8l-0.5-2.8l-0.5-1.4v-0.9l1.4-1.4v-0.9h-0.5l-0.9,0.9l-1.8,0.5L524,163l-0.9-0.9l-1.8,0.5l-4.1-2.3
				l-3.2-0.9l-0.9-0.9l-0.5-0.9l-0.5-0.5v-0.5l-2.3-1.8l-0.5-0.5l-3.2-13.8l-1.4-1.4l-1.8-0.5l-10.1-1.8l-23.9,3.7l-15.2,4.5
				l-2.3,1.8l-0.9,0.5l-0.9-0.5l-1.8-1.4L447,145l-19.8,0.5l-9.7,0.5l-6.9,3.7h-2.3l-3.7,2.8l-16.1,6.4l-3.7,3.3l-4.6,0.9l-1.8,0.5
				l-1.8,1.8l-1.4,2.3l-1.8,1.8l-3.7,1.8l-2.3,1.8l-3.7,4.1l-1.8,5.1l-2.8,11.5l-1.8,4.1l-1.8,1.4l-4.6,0.9l-1.8,1.4l-1.4,1.8
				l-20.3,18l-4.1,1.8l-4.1,0.5l-2.3,0.9l-4.1,3.7l-2.3,1.4l-4.1,0.5l-4.1-1.4l-2.3-3.2l1.4-5.1l-0.9-1.4l-0.9,0.9l-6-0.9l-0.9,1.4
				l-0.9,3.2l-0.5,4.1v3.2l-0.9,5.5l-4.1,11l-0.9,5.1l-0.5,2.3l-1.8,8.3l-4.1,31.6l-2.3,4.6v1.4l-0.9,4.6l-6,17.9L260,341.5
				l-12.7,18L233,377.4l-3.2,2.3l-4.1,0.5l-4.6-0.9l-0.5,0.9l-0.5,1.4l0.9,2.8l1.8,6.4l0.5,2.3l-0.5,0.5l-0.9,1.8l-0.5,1.4l0.5,0.9
				l0.9,0.9l2.3,3.7l0.9,1.4l-0.9,1.4l-0.9,0.5h-1.4l-2.8-1.4l-3.2-0.9H215l-0.9,0.9l-6.4,1.8l-2.8,1.8l0.9,4.6h1.8l0.5-0.5l1.8-0.5
				h2.3l2.8-0.9l1.8-1.4l2.8,1.8l2.3,2.3l1.8,3.2l0.5,5.5l1.4,2.3l6.9,2.3l2.3,1.8l0.9,0.9l-3.2,0.5l-1.8,0.9l-1.4,1.4l-0.5,1.4v1.8
				l0.5,1.8l0.5,1.4l1.8,1.8l0.9,0.5h4.6l1.4,1.4l0.5,3.2l-2.3-1.8l-2.8-0.9l-9.2-0.5h-2.3l-5.5,2.8l7.8,7.4l2.3,1.4l1.4,0.5
				l3.2-0.5h1.4l4.1,1.8l4.6,0.9l2.8,1.8l2.3,2.8l0.9,3.7l-1.4,3.7l-3.2,0.9h-3.2h-1.4l-1.8-0.9l-5.1,0.9l-2.3-0.9l-1.4-1.8
				l-1.8-5.5l-1.4-2.3l-4.1-3.7l-5.1-1.8l-9.7-0.9v-0.9l0.5-0.5l1.8-0.9l0.9-0.5l-0.9-2.3l-1.4-1.8l-1.8-1.4l-1.4-0.9l-2.3-0.5
				l-27,2.8l-10.6,6.4h-0.9l0.5,2.8l0.9,1.8l3.2,2.8l1.4,1.8l1.4,2.8l1.4,2.3l1.8,0.9l5.5,1.4h2.3l4.1-1.4h1.4l4.1,3.7l6,3.2
				l2.8,2.8l0.9,0.5h0.9l1.4-0.9l3.7-0.5l1.4-0.9l0.9-1.8l3.2-5.5l1.4-0.9l4.1,0.5l1.8,0.9l5.5,4.6l1.8,1.4l2.3,0.5h9.2l2.8-0.5
				l0.9-1.4l0.9,0.9l0.5,1.4v1.8l0.5,1.8l0.9,1.8l0.5,0.5h2.8l0.9,0.5l2.3,1.4l1.8,0.9l4.1,0.5h0.9l1.8-0.9v-0.5l0.5-2.3v-0.5
				l-0.5-1.4l-2.3-2.8l-0.5-0.5l-0.5-1.4v-1.8l0.5-1.4l0.5-0.9l-1.4-1.4l5.5-3.2l3.2-1.4l1.8-0.9l2.8-0.5h0.5l1.4,0.5l0.9,1.4v2.3
				l-0.9,1.8v1.8l0.5,0.5l1.4,0.9h1.8l2.3-0.5l3.2,0.9h1.8l1.4-0.5l0.9-0.9l7.8-9.7l3.2-1.8h1.4l1.8,0.9l0.5,0.5l1.4,0.9l0.9,1.4
				l0.5,2.3l-0.5,1.4l-0.9,1.8l-0.5,1.8v0.9l0.9,2.8l-4.3-1.7h-0.9l-0.5,1.8l2.3,0.9l6.9,0.5l1.8,0.9l3.7,1.8l2.3-0.5l0.9-1.4
				l1.4-1.4l1.4-2.3l0.9-0.9l0.5-0.9l0.9-1.4l1.4-2.8v-0.5l0.5-0.9l1.4,0.9v0.5l3.2,1.8l0.9,1.4l1.4,2.3l-0.5,2.8l-0.9,2.3v1.4
				l-0.5,2.3l0.5,1.4l3.2,3.7l0.5,1.4l0.9,3.7l0.5,0.9l1.8,0.9l3.7-0.5h1.8l1.8,2.3v5.5l1.8,0.5l3.7-0.9l12,0.5l2.3-0.9l4.1-2.8
				l0.5-0.5l1.4-0.9l2.3,0.5l0.9,0.9l1.4,0.9l1.4,1.8l0.5,0.5l0.9,3.2l0.5,3.7l2.3,1.8l5.5,1.8l0.9,0.5l2.3,2.3h1.8l2.3-0.5l1.8-0.5
				h2.3l1.8,0.9l2.3,2.8l1.4,0.9l2.8-0.9h1.8l0.9,1.8l0.5,0.9l-0.9,0.9l-0.9,0.5l-0.5,1.8l2.3,2.3l-0.5,0.5h-0.9l-0.5,0.5h-1.8v1.8
				l0.5,0.5l-0.9,2.5l-0.5,0.9l-0.9,0.9l-0.9-0.9l-0.9,0.5l-0.5,0.9v2.8l1.4,1.8l-1.8,3.7l-4.1,6.4l2.3-0.5h0.9l0.9,0.5l-0.5,0.5
				l-0.9,1.4l-1.4,3.7l-1.4,1.8l-0.5,0.5l-1.8,0.9h-0.5l-6,6.4l-1.4,1.4v3.2l0.5,0.5l1.4,1.8l2.3,1.4h0.5l1.8,0.9l1.4,0.5v1.8
				l-0.5,1.4l-0.9,3.2l1.8,0.9h2.3l1.4-2.3v-0.5l0.9-0.9l0.5,0.5h0.5l1.8,2.3l0.9,0.9l8.7-0.5l2.3,0.9l7.4,0.5h0.9l1.4-0.5l0.5-1.8
				l-0.5-0.9l-0.9-0.9l-0.9-1.4l-0.5-1.8l1.4,0.5l1.4-1.4l0.5-1.8l-0.5-1.4v-1.4l0.9-1.4l1.4-0.9h2.3l0.9-1.4l0.5-1.8v-1.4l-0.5-3.2
				v-0.9l0.5-0.9l0.5-0.5l-3.2-0.9l-2.3-1.8l-0.9-0.9l-0.5-1.4v-2.3l0.5-1.8l0.5-1.4l0.5-0.9l-3.7,0.5l-2.8-0.9h-1.4l-1.4,0.5
				l-2.8,1.4l-1.4,0.5v-4.1l-1.4-4.6l-0.5-3.7l2.8-1.4l1.4,0.9l2.8,2.8l1.8-0.5l1.4-1.4l1.8-4.1l1.4-1.4l9.2-7.4l5.5-3.2l1.4-1.8
				l-2.3-1.8l2.3-1.8l0.9-0.5l-2.3-0.9l-5.1,3.2l-2.3-1.4l-0.9-3.2l0.5-3.7l0.9-3.2l0.9-1.8l2.3-2.8l4.6-9.2l0.9-0.9l2.3-1.8
				l0.9-1.4l0.5-1.8l0.5-3.7l0.5-1.4l-0.9-1.8v-3.1l0.9-3.2l0.5-3.2l-0.5-2.8l-1-5.6l-4.1-4.6l-6.9-9.2l-0.5-1.8l0.5-2.3l0.9-3.7
				l-6-3.2l-2.3-2.8l1.4-4.6l-1.4-0.9l-2.3-1.8l-0.9-0.5h-2.8l-0.9-0.5v-1.8l2.3-2.3v-3.2l-1.4-3.2l-2.3-1.4l0.5-1.4l1.8-0.9
				l4.1-0.9l1.8-0.9l1.8-1.4l1.4-0.9l4.1-0.9l3.2,0.9l2.3,0.5l1.8,0.5l-1.4-2.3l-3.7-3.7l-1.4-0.9l3.2-1.8l3.2,1.4l3.2,2.8l3.2,1.4
				l3.2-0.5h0.9l0.9,0.9l0.9,1.8l0.5,0.5l3.7,0.5l1.8,0.9l0.5,2.3l3.7-0.9l0.5-1.8l-0.9-3.7l6.4,1.8h1.8l1.8-0.9l5.1-3.7l10.1-3.2
				l9.2-0.5l2.8-1.4l2.3-2.8l2.3-4.1l0.9-0.9h0.9l0.5-0.5V383l-0.9-1.8l-2.3-2.8l-6.4-3.7l-2.3-0.5l-1.8-1.4l-0.5-2.3l0.9-1.8
				l0.9-0.5h0.9l1.4-0.5l0.9-0.9l0.9-2.3l0.5-0.9l1.8-1.8l1.4-0.9l6.4-0.9l1.4-0.9l2.3-4.6l1.8-1.8l4.1-1.8l1.8-1.8l2.3-3.7l0.9-1.4
				l4.6-2.8l0.5-0.9l-0.9-1.4l-0.5-4.1v-3.2l0.9-2.3l1.8-4.6l0.9-6l-1.4-4.1l-6-10.1l-0.5,0.5l-0.5,0.9l-0.9,0.9l-2.3,0.9h-2.8
				l-3.2-0.5l-5.1-1.8l-8.3-1.4l-2.8-1.4l-1.8-2.3l-0.5-2.3v-2.8l0.2-3l-1.4-2.8h1.8l5.5-2.8l-3.2-2.8l-0.9-0.9v-1.4l0.5-1.4V279
				l-0.9-1.8l3.7-2.3l3.2-0.9h9.7l5.5,1.8l5.1-0.9l1.4,0.5l3.7,0.9l1.8-3.7l0.9-6l0.9-17.9l0.9-5.5l1.8-5.1l8.3-12.9l2.3-5.5
				l0.9-5.5v-6l-0.9-11.8l-0.5-1.4l-0.9-1.4l-0.5-0.9V191l0.5-1.4L538.7,186z M406.6,296.1l-0.9,3.7l-1.8,3.2l-4.1,6l-2.3,2.3
				l-3.2,2.3l-3.2,1.8l-6.4,2.3l-3.2,2.3l-4.6,5.5l-2.8,7.8l-0.9,1.4l-8.7,2.3l-4.1-0.5l-4.6-2.3l-9.2-6.9l-1.8-0.5l-4.1,0.5h-3.2
				l-1.8-0.5l-5.1-3.7l-1.8-0.9l-4.6-0.5l-1.8-0.5l-6-3.7l0.5-0.9l0.5-0.5v-1.4l1.4,0.5l0.5,0.5l0.9,0.5v-1.4l1.4,0.9l0.9-1.8
				l0.9-2.8l1.4-1.4l0.9-0.5l0.9-0.9l0.9-1.4l0.9-1.8l-1.8-0.9v-0.5l-0.5-1.4l-0.9-0.9l1.8-0.9h0.9l-0.5-1.8l-0.5-0.5l1.8-2.3
				l-0.9-4.1l-3.2-7.4l-1.4-4.6v-4.1l1.4-2.8l3.7-0.5l2.8,0.9l0.9,0.5l1.8,1.8l2.8-0.9l6-4.1l1.8-1.8l1.4-4.1l1.4-1.4l3.2-1.8
				l-0.5-1.8l-0.5-1.8l-0.5-1.8l-0.5-0.9l-5.1-2.3h-1.8l-1.4,0.5l-1.1,0.4l-0.9,0.9l-1.4,0.9l-1.4-0.9l-1.4-1.4l-0.9-0.5l-1.4-2.3
				l-0.5-10.6l-0.5-3.7l-5.1-10.1l-2.3-1.8l4.1-1.8l4.1-2.8l16.1-14.3l8.3-5.5l0.9,3.7l0.5,1.4l0.9,1.8l0.9,0.5l0.5,2.3v2.3
				l-0.5,1.8l0.9,1.8l0.5,2.8v2.8l-1.8,2.3l1.4,2.8l-0.9,1.4l-1.8,0.9l-0.9,1.8h-0.5l-0.5,0.5v1.8l0.5,0.9l0.5,0.5l0.9,0.5l0.5,0.9
				l2.3,1.8l3.2,0.9l6.4,0.5l1.4,0.5l2.3,1.4l1.4,0.5l1.8-0.5l0.9-0.5l2.3-1.4l1.8-0.5h1.4l7.4,2.3l0.9,0.9h-3.7l-3.2,2.3l-2.3,3.2
				l-1.8,4.1l-0.9,4.1l-0.9,6.9v6.4l1.8,2.8l1.4,0.9l2.3,4.6l0.9,1.4l1.8,0.5l13.3-0.9l1.8,0.5l1.4,0.9l0.9,1.8l0.9,2.8l1.4,6
				l0.5,3.2L406.6,296.1z M386.8,281l-2.8-2.8l-1.8,1.4l-6,1.8l-1.8,1.4l-4.6,4.6H369l-1.8-0.5l-0.9,0.5l-2.3,6.4l-0.9,0.9l-3.7,1.4
				l-4.6,4.1l-7.4,3.2l-4.1,4.1l-6.4,3.2l-2.8,2.8l-1.8,0.9l0.5,3.2l0.5,2.3l0.5,1.8l2.3,0.9l4.6-0.5l1.8,0.5l6.9,2.8l3.2,1.8l6,4.6
				l2.8,0.9l6.9-0.5l3.7-1.4l2.3-2.8l0.5-4.1l-0.9-5.1l2.8-1.4l1.4-0.5h1.8l1.4-0.9l2.3-3.2l1.4-0.9l2.8-0.5l4.6-2.3l2.8-0.5
				l2.3-0.5l2.8-2.8l2.3-3.2l1.8-3.2l1.4-4.1v-3.2l-1.8-7.4L386.8,281z M190.4,430.6l4.6-0.5l3.2-3.2h1.4l0.9,0.9l0.5,0.9l0.5,0.5
				l4.1,1.8l1.8,1.4l0.5,1.8l0.9,2.3l2.3,1.4l3.7,1.4h1.8l7.8-1.4l1.8-0.5l1.8-0.9l0.9-1.8l-0.5-2.8l-1.8-1.4l-4.1-0.9l-0.9-0.9
				l-0.9-1.8l-4.1-4.6l-1.8-1.4l-2.3-0.5l-9.7-0.5l-1.4-0.9h-2.3l-8.3,1.4l-3.7,2.3l-0.5,5.1l1.4,1.8L190.4,430.6z M236.3,478.8
				l-0.5,0.5l-1.8,2.8l-3.2-0.5l-1.4-1.4l-2.3-0.5l-0.9-0.5l-0.9-0.9l-1-2.3l-1.8-0.5l-1.4-0.9l-2.3-0.9h-2.3l-0.9,1.4l-0.5,3.2
				l-1.4,1.8l-9.7,3.7l-2.3,0.5l-3.7-0.9H194l-2.3-0.9l-3.2-3.2l-9.7-2.8l-6.4-4.1H171l-1.8,1.4l-16.1,5.5l0.5,4.1l0.5,2.3l-0.5,3.7
				v3.7l0.9,2.8l0.5,1.4l2.3,2.8l1.8,0.9l0.9,0.5h3.2l4.1-0.5h0.9v-1.4l-0.5-1.8V496l0.9-0.9l1.4-0.5h1.8l4.1-0.9h2.8l2.3,0.5
				l12.4,4.1l1.8,1.4l0.5,2.3v3.7l1.4,1.8l0.9,0.5h12l1.4-0.5l0.9-0.5l0.5-0.5l4.1-3.2l12.4-6.4l5.1-4.1l4.1-5.5l0.5-0.9v-0.5
				l0.9-3.7v-0.5l-2.3-1.4L236.3,478.8z M295,214.9l3.2-0.9l2.3-4.6l4.6-3.7l2.8-4.1l1.4-2.8l0.5-2.3h-1.9v-0.9l1.8-1.8V191
				l-0.9-3.2l-1.4-2.3l0.5-0.9v-0.9l-0.9-1.8h-3.2l-2.3,4.1l-2.3,5.1l-4.6,4.1l-2.3,4.1l-1.8,5.1L290,209l1.8,4.1L295,214.9z"/>
		</g>
	</g>
	<g id="Layer_2_00000088848627424835964120000008970817299633544590_">
		<circle class="st3" cx="384.8" cy="442.9" r="8.6"/>
		<circle class="st4" cx="306.9" cy="328.3" r="8.6"/>
		<circle class="st3" cx="423.4" cy="206.9" r="8.6"/>
		<circle class="st3" cx="265.2" cy="407.2" r="8.6"/>
		<circle class="st3" cx="335.4" cy="378.1" r="8.6"/>
	</g>
</g>
</svg>
