<?xml version="1.0" encoding="UTF-8"?><svg id="Layer_1" xmlns="http://www.w3.org/2000/svg" viewBox="0 0 700 700"><defs><style>.cls-1{fill:#010101;}.cls-2{fill:#71bf4a;}.cls-2,.cls-3,.cls-4{stroke:#000;stroke-miterlimit:10;}.cls-3{fill:#fff;}.cls-4{fill:#d95f5b;}</style></defs><g id="Layer_2"><path class="cls-1" d="M621.11,700H78.89c-20.88,0-41.01-8.38-55.76-23.13-14.75-14.75-23.13-34.88-23.13-55.76V78.89C0,58.01,8.38,37.88,23.13,23.13,37.88,8.38,58.01,0,78.89,0H621.11c20.88,0,41.01,8.38,55.76,23.13,14.75,14.75,23.13,34.88,23.13,55.76V621.11c0,20.88-8.38,41.01-23.13,55.76-14.88,14.75-34.88,23.13-55.76,23.13Z"/></g><g id="Layer_1-2"><g><rect class="cls-3" x="450.52" y="189.66" width="166.15" height="59.76"/><g><rect class="cls-2" x="302.74" y="189.66" width="137.4" height="59.76"/><g><rect class="cls-3" x="79.2" y="189.66" width="211.16" height="59.76"/><g><rect class="cls-3" x="79.2" y="320.06" width="211.16" height="59.76"/><rect class="cls-2" x="483.4" y="320.06" width="137.4" height="59.76"/><rect class="cls-3" x="304.74" y="319.81" width="166.15" height="59.76"/></g><g><rect class="cls-4" x="79.2" y="450.46" width="161.53" height="59.76"/><rect class="cls-3" x="483.4" y="450.46" width="137.4" height="59.76"/><rect class="cls-3" x="255.36" y="450.08" width="215.54" height="59.76"/></g></g></g></g></g></svg>